<svg
  xmlns="http://www.w3.org/2000/svg"
  width="99"
  height="99"
  viewBox="0 0 99 99"
  fill="none"
>
  <path
    d="M97.8656 0.288042C94.1351 5.8518 85.187 15.1649 68.906 15.1649C63.0645 15.1649 58.4624 16.4591 54.984 18.7895C51.6295 20.9866 47.4033 20.9866 44.0446 18.7895C40.4422 16.4591 35.9682 15.1649 30.1225 15.1649C13.8416 15.1649 5.01739 5.8518 1.163 0.288042C0.667261 -0.356907 -0.204417 0.159052 0.0434535 1.06628V1.19527C0.791196 4.17063 2.15862 7.91994 4.39358 12.0605C6.26087 15.2939 8.74784 18.5315 12.1024 21.2446C12.9699 22.0228 13.9655 22.6678 14.9611 23.317C9.11965 38.7098 10.2392 32.5011 18.3156 47.1199L46.0358 96.9229C46.7794 98.2171 48.1469 98.9953 49.5143 98.9953C50.8817 98.9953 52.3731 98.2171 52.9927 96.9229L80.7129 47.1199C88.7935 32.5011 89.9089 38.8388 84.0674 23.317C85.063 22.6678 86.0587 21.8938 86.9262 21.2446C90.2849 18.4025 92.7677 15.1649 94.635 12.0605C96.87 8.18221 98.2374 4.17063 98.9851 1.19527V1.06628C99.1091 0.288042 98.2374 -0.356907 97.8656 0.288042ZM17.572 33.7953C17.572 30.9489 18.4396 28.2315 19.9309 26.1634C20.8026 26.5504 21.6743 26.8083 22.5418 27.1953C22.9136 27.3286 29.9986 29.1388 30.8703 29.3967C34.9725 30.8199 39.0748 33.146 42.6772 37.5446C41.1858 43.1083 36.216 47.1199 30.3745 47.1199C23.2896 47.1199 17.572 41.1692 17.572 33.7953ZM49.3904 68.7214L32.8863 51.0885C38.4469 50.2759 43.1358 46.6599 45.536 41.5562C45.7838 41.9431 46.0358 42.4634 46.2837 42.9794C46.5316 43.3663 46.6555 43.6243 46.9034 44.0156C47.5272 45.3098 48.1469 46.733 48.6426 48.1561C48.8946 48.8011 49.1425 49.317 49.2664 49.9663C49.2664 50.0953 49.3904 50.2243 49.3904 50.3533C49.3904 50.2243 49.5143 50.0953 49.5143 49.9663C49.7622 49.317 50.01 48.8011 50.134 48.1561C50.7578 46.733 51.3774 45.3098 51.8773 44.0156C52.1252 43.6243 52.2491 43.3663 52.497 42.9794C52.7449 42.4634 52.9927 42.0721 53.2447 41.5562C55.6449 46.6599 60.3338 50.2759 65.8944 51.0885L49.3904 68.7214ZM79.3455 47.1199V46.9694C79.3207 46.9565 79.2918 46.9479 79.2588 46.9393L79.3455 46.8619V46.9694C79.5851 47.0554 79.6016 47.1199 79.3455 47.1199ZM68.4062 46.9909C62.5647 46.9909 57.5949 42.9794 56.1035 37.4156C59.7059 33.146 63.5603 30.8199 67.9104 29.3967C68.906 29.1388 69.7736 28.7475 70.6452 28.6185C71.141 28.4895 77.9781 26.4214 78.8498 26.0344C80.3411 28.2315 81.2087 30.8199 81.2087 33.6663C81.2087 41.0402 75.4911 46.9909 68.4062 46.9909Z"
    fill="white"
  />
  <path
    d="M32.2332 40.262C34.9681 40.262 37.3311 38.4518 38.0747 35.7344L38.3226 35.0895L37.8269 34.7025C35.7158 33.0213 33.3528 31.7271 30.494 30.8199C29.6223 30.5619 28.7548 30.304 27.8831 30.175L27.2634 29.917L27.0156 30.5619C26.3959 31.5982 26.02 32.7591 26.02 33.9243C26.1439 37.4156 28.8787 40.262 32.2332 40.262Z"
    fill="white"
  />
  <path
    d="M66.4145 40.262C69.769 40.262 72.5039 37.4156 72.5039 33.9243C72.5039 32.7591 72.256 31.5939 71.5083 30.5619L71.2604 29.917L70.6407 30.175C69.6451 30.4329 68.9015 30.6909 68.0298 30.8199C65.171 31.7271 62.808 33.017 60.697 34.7025L60.2012 35.0895L60.4491 35.7344C61.1968 38.3228 63.6797 40.262 66.4145 40.262Z"
    fill="white"
  />
</svg>
