<svg xmlns="http://www.w3.org/2000/svg" width="83" height="26" viewBox="0 0 83 26" fill="none">
  <path d="M34.3529 26L26.292 9.21101H30.3369L35.7686 20.7946L36.5487 22.8539H36.8087L37.5599 20.7946L43.0495 9.21101H46.9788L46.5165 10.9271L38.9757 26H34.3529Z" fill="white"/>
  <path d="M49.5886 26V9.18241H53.4024V26H49.5886Z" fill="white"/>
  <path d="M57.1581 26V23.2257L69.9863 11.9281H57.1581V9.18241H75.1002V11.9281L62.012 23.2543H74.9558L76.1115 25.6854C76.1115 25.7617 75.8514 25.8379 75.3314 25.9142C74.8113 25.9714 73.9156 26 72.6444 26H57.1581Z" fill="white"/>
  <path d="M79.1862 26V9.18241H83V26H79.1862Z" fill="white"/>
  <path d="M25.7051 0.0748943C24.7252 1.52154 22.3749 3.94305 18.0986 3.94305C16.5643 3.94305 15.3556 4.27956 14.4419 4.88549C13.5608 5.45677 12.4508 5.45677 11.5686 4.88549C10.6224 4.27956 9.44728 3.94305 7.91189 3.94305C3.63559 3.94305 1.31785 1.52154 0.30547 0.0748943C0.175261 -0.0928003 -0.0536915 0.0413554 0.0114134 0.277246V0.310785C0.207813 1.08442 0.566975 2.05928 1.154 3.13588C1.64446 3.97659 2.29768 4.81841 3.17877 5.52385C3.40663 5.7262 3.66814 5.8939 3.92964 6.06271C2.39534 10.065 2.6894 8.45068 4.81073 12.2518L12.0916 25.2011C12.2869 25.5376 12.6461 25.74 13.0053 25.74C13.3644 25.74 13.7561 25.5376 13.9189 25.2011L21.1998 12.2518C23.3222 8.45068 23.6152 10.0986 22.0809 6.06271C22.3424 5.8939 22.6039 5.69266 22.8318 5.52385C23.7139 4.78488 24.3661 3.94305 24.8565 3.13588C25.4436 2.12748 25.8027 1.08442 25.9991 0.310785V0.277246C26.0317 0.0748943 25.8027 -0.0928003 25.7051 0.0748943ZM4.61542 8.78719C4.61542 8.04709 4.84328 7.34054 5.235 6.8028C5.46395 6.90342 5.6929 6.9705 5.92077 7.07111C6.01843 7.10577 7.87934 7.57643 8.10829 7.64351C9.18578 8.01356 10.2633 8.61837 11.2095 9.76205C10.8177 11.2087 9.51239 12.2518 7.97808 12.2518C6.11717 12.2518 4.61542 10.7045 4.61542 8.78719ZM12.9727 17.8684L8.63781 13.2836C10.0983 13.0723 11.3299 12.1321 11.9603 10.8051C12.0254 10.9057 12.0916 11.041 12.1567 11.1752C12.2218 11.2758 12.2544 11.3429 12.3195 11.4446C12.4833 11.7811 12.6461 12.1511 12.7763 12.5212C12.8425 12.6889 12.9076 12.823 12.9402 12.9918C12.9402 13.0254 12.9727 13.0589 12.9727 13.0925C12.9727 13.0589 13.0053 13.0254 13.0053 12.9918C13.0704 12.823 13.1355 12.6889 13.168 12.5212C13.3319 12.1511 13.4946 11.7811 13.6259 11.4446C13.691 11.3429 13.7236 11.2758 13.7887 11.1752C13.8538 11.041 13.9189 10.9393 13.9851 10.8051C14.6155 12.1321 15.8471 13.0723 17.3076 13.2836L12.9727 17.8684ZM20.8406 12.2518V12.2126C20.8341 12.2093 20.8265 12.207 20.8179 12.2048L20.8406 12.1847V12.2126C20.9036 12.235 20.9079 12.2518 20.8406 12.2518ZM17.9673 12.2182C16.433 12.2182 15.1277 11.1752 14.736 9.72851C15.6822 8.61837 16.6945 8.01356 17.8371 7.64351C18.0986 7.57643 18.3265 7.4747 18.5555 7.44116C18.6857 7.40762 20.4815 6.86988 20.7104 6.76926C21.1021 7.34054 21.33 8.01356 21.33 8.75365C21.33 10.671 19.8283 12.2182 17.9673 12.2182Z" fill="white"/>
  <path d="M8.46628 10.4686C9.1846 10.4686 9.80527 9.99794 10.0006 9.29139L10.0657 9.12369L9.93548 9.02308C9.381 8.58595 8.76034 8.24944 8.00946 8.01355C7.78051 7.94648 7.55264 7.8794 7.32369 7.84586L7.16093 7.77878L7.09582 7.94648C6.93306 8.21591 6.83432 8.51776 6.83432 8.82072C6.86687 9.72851 7.58519 10.4686 8.46628 10.4686Z" fill="#FAFAFA"/>
  <path d="M17.4442 10.4686C18.3253 10.4686 19.0436 9.72851 19.0436 8.82072C19.0436 8.51776 18.9785 8.21479 18.7821 7.94648L18.717 7.77878L18.5543 7.84586C18.2928 7.91294 18.0974 7.98002 17.8685 8.01355C17.1176 8.24944 16.497 8.58483 15.9425 9.02308L15.8123 9.12369L15.8774 9.29139C16.0738 9.9644 16.7259 10.4686 17.4442 10.4686Z" fill="#FAFAFA"/>
</svg>