<svg width="37" height="36" viewBox="0 0 37 36" fill="none" xmlns="http://www.w3.org/2000/svg">
<rect x="0.888672" width="35.5143" height="36" rx="8" fill="#EFEFF0"/>
<path fill-rule="evenodd" clip-rule="evenodd" d="M9.76758 18C9.76758 14.4049 9.76758 12.6073 10.6127 11.3126C10.9901 10.7344 11.4786 10.2392 12.0489 9.85669C13.3262 9 15.0995 9 18.6461 9C22.1928 9 23.9661 9 25.2434 9.85669C25.8137 10.2392 26.3022 10.7344 26.6796 11.3126C27.5247 12.6073 27.5247 14.4049 27.5247 18C27.5247 21.5951 27.5247 23.3927 26.6796 24.6874C26.3022 25.2656 25.8137 25.7608 25.2434 26.1433C23.9661 27 22.1928 27 18.6461 27C15.0995 27 13.3262 27 12.0489 26.1433C11.4786 25.7608 10.9901 25.2656 10.6127 24.6874C9.76758 23.3927 9.76758 21.5951 9.76758 18ZM23.2425 18.0002C23.2425 20.5735 21.1846 22.6596 18.646 22.6596C16.1074 22.6596 14.0494 20.5735 14.0494 18.0002C14.0494 15.4269 16.1074 13.3408 18.646 13.3408C21.1846 13.3408 23.2425 15.4269 23.2425 18.0002ZM18.646 21.0832C20.3257 21.0832 21.6874 19.7029 21.6874 18.0002C21.6874 16.2975 20.3257 14.9172 18.646 14.9172C16.9663 14.9172 15.6046 16.2975 15.6046 18.0002C15.6046 19.7029 16.9663 21.0832 18.646 21.0832ZM23.4241 14.2015C24.0206 14.2015 24.5041 13.7114 24.5041 13.1067C24.5041 12.5021 24.0206 12.0119 23.4241 12.0119C22.8276 12.0119 22.344 12.5021 22.344 13.1067C22.344 13.7114 22.8276 14.2015 23.4241 14.2015Z" fill="#61646B"/>
</svg>
