<svg width="36" height="36" viewBox="0 0 36 36" fill="none" xmlns="http://www.w3.org/2000/svg">
<rect x="0.1875" width="35.5143" height="36" rx="8" fill="#EFEFF0"/>
<path d="M9.06641 11.4198C9.06641 10.8426 9.26638 10.3664 9.66631 9.99124C10.0662 9.61605 10.5862 9.42847 11.2261 9.42847C11.8545 9.42847 12.363 9.61316 12.7515 9.98258C13.1515 10.3635 13.3514 10.8599 13.3514 11.4718C13.3514 12.0259 13.1572 12.4876 12.7687 12.857C12.3687 13.238 11.8431 13.4285 11.1918 13.4285H11.1746C10.5462 13.4285 10.0377 13.238 9.64917 12.857C9.26065 12.4761 9.06641 11.997 9.06641 11.4198ZM9.28923 26.5713V15.0042H13.0943V26.5713H9.28923ZM15.2026 26.5713H19.0077V20.1124C19.0077 19.7084 19.0534 19.3967 19.1448 19.1774C19.3048 18.7849 19.5476 18.453 19.8732 18.1817C20.1989 17.9104 20.6074 17.7748 21.0988 17.7748C22.3786 17.7748 23.0184 18.6464 23.0184 20.3895V26.5713H26.8235V19.9393C26.8235 18.2308 26.4236 16.935 25.6237 16.0518C24.8239 15.1687 23.7669 14.7272 22.4528 14.7272C20.9788 14.7272 19.8304 15.3679 19.0077 16.6492V16.6839H18.9905L19.0077 16.6492V15.0042H15.2026C15.2254 15.3736 15.2368 16.5222 15.2368 18.4501C15.2368 20.378 15.2254 23.085 15.2026 26.5713Z" fill="#61646B"/>
</svg>
