<svg width="37" height="36" viewBox="0 0 37 36" fill="none" xmlns="http://www.w3.org/2000/svg">
<rect x="0.589844" width="35.5143" height="36" rx="8" fill="#EFEFF0"/>
<path d="M21.3335 10.7012V10.698H22.1661L22.4704 10.7596C22.6732 10.7996 22.8573 10.852 23.0228 10.9168C23.1882 10.9816 23.3484 11.0573 23.5031 11.1437C23.6579 11.2302 23.7983 11.3182 23.9243 11.4079C24.0492 11.4965 24.1612 11.5905 24.2605 11.69C24.3587 11.7904 24.5119 11.8164 24.72 11.7678C24.9282 11.7191 25.1524 11.6516 25.3925 11.5651C25.6327 11.4787 25.8702 11.3815 26.1051 11.2734C26.3399 11.1653 26.483 11.0967 26.5342 11.0675C26.5844 11.0373 26.6111 11.0211 26.6143 11.0189L26.6174 11.0141L26.6335 11.006L26.6495 10.9979L26.6655 10.9897L26.6815 10.9816L26.6847 10.9768L26.6895 10.9735L26.6943 10.9703L26.6975 10.9654L26.7135 10.9606L26.7295 10.9573L26.7263 10.9816L26.7215 11.006L26.7135 11.0303L26.7055 11.0546L26.6975 11.0708L26.6895 11.087L26.6815 11.1113C26.6762 11.1275 26.6708 11.1491 26.6655 11.1761C26.6601 11.2032 26.6094 11.3112 26.5134 11.5003C26.4173 11.6894 26.2972 11.8812 26.1531 12.0757C26.009 12.2702 25.8798 12.4172 25.7656 12.5166C25.6503 12.6171 25.574 12.6873 25.5366 12.7273C25.4993 12.7683 25.4539 12.8062 25.4005 12.8407L25.3205 12.8942L25.3045 12.9023L25.2885 12.9104L25.2853 12.9153L25.2805 12.9185L25.2756 12.9218L25.2724 12.9267L25.2564 12.9348L25.2404 12.9429L25.2372 12.9477L25.2324 12.951L25.2276 12.9542L25.2244 12.9591L25.2212 12.9639L25.2164 12.9672L25.2116 12.9704L25.2084 12.9753H25.2885L25.7368 12.878C26.0357 12.8132 26.3212 12.7349 26.5934 12.643L27.0257 12.4971L27.0738 12.4809L27.0978 12.4728L27.1138 12.4647L27.1298 12.4566L27.1458 12.4485L27.1618 12.4404L27.1939 12.4355L27.2259 12.4323V12.4647L27.2179 12.468L27.2099 12.4728L27.2067 12.4777L27.2019 12.4809L27.1971 12.4842L27.1939 12.489L27.1907 12.4939L27.1859 12.4971L27.1811 12.5004L27.1779 12.5052L27.1747 12.5101L27.1698 12.5133L27.1618 12.5295L27.1538 12.5458L27.149 12.549C27.1469 12.5522 27.0791 12.6441 26.9457 12.8245C26.8123 13.0061 26.7402 13.0979 26.7295 13.1001C26.7189 13.1033 26.7039 13.1195 26.6847 13.1487C26.6665 13.179 26.5534 13.2994 26.3452 13.5102C26.1371 13.7209 25.9332 13.9083 25.7336 14.0726C25.5329 14.2379 25.4315 14.4411 25.4294 14.682C25.4262 14.9219 25.4139 15.1931 25.3925 15.4957C25.3712 15.7982 25.3312 16.1251 25.2724 16.4763C25.2137 16.8275 25.123 17.2246 25.0002 17.6676C24.8775 18.1106 24.728 18.5429 24.5519 18.9643C24.3758 19.3857 24.1916 19.7639 23.9995 20.0989C23.8074 20.4339 23.6312 20.7175 23.4711 20.9498C23.311 21.1821 23.1482 21.4009 22.9828 21.6063C22.8173 21.8116 22.6081 22.0428 22.3551 22.3C22.101 22.5561 21.9623 22.6965 21.9388 22.7214C21.9142 22.7452 21.8096 22.8338 21.6249 22.9872C21.4414 23.1417 21.2439 23.2962 21.0325 23.4508C20.8222 23.6042 20.629 23.7323 20.4529 23.8349C20.2767 23.9376 20.0643 24.0548 19.8156 24.1866C19.568 24.3195 19.3 24.4427 19.0118 24.5562C18.7236 24.6696 18.4194 24.775 18.0991 24.8723C17.7789 24.9695 17.4693 25.0451 17.1704 25.0992C16.8716 25.1532 16.5326 25.1991 16.1537 25.2369L15.5853 25.2937V25.3018H14.5445V25.2937L14.4084 25.2856C14.3177 25.2802 14.243 25.2748 14.1842 25.2694C14.1255 25.264 13.904 25.2342 13.5197 25.1802C13.1355 25.1262 12.8339 25.0721 12.6151 25.0181C12.3963 24.9641 12.0707 24.8614 11.6384 24.7102C11.206 24.5589 10.8362 24.406 10.5287 24.2515C10.2224 24.098 10.0302 24.0008 9.95231 23.9597C9.87545 23.9197 9.78899 23.87 9.69292 23.8106L9.54881 23.7215L9.54562 23.7166L9.5408 23.7133L9.536 23.7101L9.5328 23.7052L9.51679 23.6971L9.50077 23.689L9.49759 23.6842L9.49277 23.6809L9.48796 23.6777L9.48476 23.6728L9.48158 23.668L9.47676 23.6647H9.46875V23.6323L9.48476 23.6355L9.50077 23.6404L9.57283 23.6485C9.62086 23.6539 9.75163 23.662 9.96512 23.6728C10.1786 23.6836 10.4054 23.6836 10.6456 23.6728C10.8858 23.662 11.1313 23.6377 11.3822 23.5999C11.633 23.5621 11.9292 23.4972 12.2708 23.4054C12.6124 23.3135 12.9263 23.2044 13.2123 23.078C13.4973 22.9505 13.7002 22.8554 13.8208 22.7927C13.9403 22.7311 14.1229 22.6166 14.3684 22.4491L14.7366 22.1979L14.7399 22.193L14.7447 22.1898L14.7495 22.1865L14.7527 22.1817L14.7559 22.1768L14.7607 22.1736L14.7655 22.1703L14.7687 22.1654L14.7847 22.1606L14.8007 22.1573L14.8039 22.1411L14.8087 22.1249L14.8135 22.1217L14.8167 22.1168L14.6886 22.1087C14.6032 22.1033 14.5205 22.0979 14.4404 22.0925C14.3604 22.0871 14.2349 22.0628 14.0642 22.0196C13.8934 21.9763 13.7092 21.9115 13.5117 21.8251C13.3143 21.7386 13.1221 21.636 12.9353 21.5171C12.7485 21.3983 12.6135 21.2994 12.5302 21.2205C12.448 21.1427 12.3413 21.0325 12.21 20.8898C12.0798 20.7461 11.9666 20.5986 11.8705 20.4474C11.7745 20.2961 11.6827 20.1216 11.5951 19.9238L11.4622 19.6288L11.4542 19.6045L11.4462 19.5802L11.4414 19.564L11.4382 19.5478L11.4622 19.551L11.4862 19.5559L11.6624 19.5802C11.7798 19.5964 11.9639 19.6018 12.2148 19.5964C12.4656 19.591 12.6391 19.5802 12.7352 19.564C12.8312 19.5478 12.89 19.537 12.9113 19.5316L12.9433 19.5235L12.9834 19.5154L13.0234 19.5073L13.0266 19.5024L13.0314 19.4992L13.0362 19.4959L13.0394 19.4911L13.0074 19.483L12.9753 19.4749L12.9433 19.4667L12.9113 19.4586L12.8793 19.4505C12.8579 19.4451 12.8206 19.4343 12.7672 19.4181C12.7138 19.4019 12.5697 19.3425 12.3349 19.2398C12.1 19.1372 11.9132 19.0372 11.7745 18.94C11.6353 18.8424 11.5027 18.7358 11.3774 18.6207C11.2525 18.504 11.1153 18.3538 10.9659 18.1701C10.8164 17.9864 10.683 17.773 10.5656 17.5298C10.4481 17.2867 10.3601 17.0544 10.3014 16.8329C10.2429 16.6127 10.2043 16.3875 10.1861 16.1602L10.1573 15.8199L10.1733 15.8231L10.1893 15.828L10.2053 15.8361L10.2213 15.8442L10.2373 15.8523L10.2533 15.8604L10.5015 15.9738C10.667 16.0495 10.8725 16.1143 11.118 16.1683C11.3635 16.2224 11.5103 16.2521 11.5583 16.2575L11.6303 16.2656H11.7745L11.7713 16.2607L11.7665 16.2575L11.7616 16.2542L11.7584 16.2494L11.7553 16.2445L11.7504 16.2413L11.7456 16.238L11.7424 16.2332L11.7264 16.2251L11.7104 16.217L11.7072 16.2121L11.7024 16.2089L11.6976 16.2056L11.6944 16.2008L11.6784 16.1926L11.6624 16.1845L11.6592 16.1797C11.656 16.1775 11.6101 16.1429 11.5215 16.0759C11.4339 16.0079 11.3421 15.9198 11.2461 15.8118C11.15 15.7037 11.0539 15.5902 10.9579 15.4714C10.8616 15.3522 10.7759 15.2248 10.7017 15.0905C10.627 14.9554 10.5479 14.7836 10.4647 14.575C10.3825 14.3676 10.3201 14.1585 10.2773 13.9478C10.2347 13.7371 10.2106 13.5291 10.2053 13.3238C10.2 13.1184 10.2053 12.9429 10.2213 12.797C10.2373 12.6511 10.2693 12.4863 10.3174 12.3026C10.3654 12.1189 10.4348 11.9244 10.5255 11.7191L10.6616 11.4112L10.6696 11.3869L10.6776 11.3625L10.6825 11.3593L10.6857 11.3544L10.6889 11.3496L10.6937 11.3463L10.6985 11.3496L10.7017 11.3544L10.7049 11.3593L10.7097 11.3625L10.7145 11.3658L10.7177 11.3706L10.7209 11.3755L10.7257 11.3788L10.7337 11.395L10.7417 11.4112L10.7465 11.4144L10.7497 11.4193L10.9659 11.6624C11.11 11.8245 11.2808 12.0055 11.4782 12.2054C11.6757 12.4053 11.7851 12.509 11.8065 12.5166C11.8278 12.5252 11.8545 12.5501 11.8865 12.5911C11.9186 12.6311 12.0253 12.7268 12.2068 12.878C12.3883 13.0293 12.6258 13.2049 12.9193 13.4048C13.2129 13.6047 13.5384 13.8019 13.896 13.9964C14.2536 14.1909 14.6379 14.3665 15.0489 14.5232C15.4599 14.6799 15.7481 14.7825 15.9135 14.8311C16.079 14.8798 16.3619 14.9419 16.7621 15.0175C17.1624 15.0932 17.464 15.1418 17.6668 15.1634C17.8696 15.185 18.0084 15.1975 18.0831 15.2007L18.1952 15.2039L18.192 15.1796L18.1872 15.1553L18.1552 14.9527C18.1338 14.8176 18.1232 14.6285 18.1232 14.3854C18.1232 14.1423 18.1418 13.9181 18.1792 13.7128C18.2166 13.5075 18.2726 13.2994 18.3473 13.0887C18.422 12.878 18.4952 12.7089 18.5667 12.5814C18.6393 12.455 18.7343 12.3107 18.8517 12.1487C18.9691 11.9866 19.1212 11.8191 19.308 11.6462C19.4948 11.4733 19.7083 11.3193 19.9485 11.1843C20.1887 11.0492 20.4102 10.9465 20.613 10.8763C20.8158 10.8061 20.9866 10.7601 21.1254 10.7385C21.2642 10.7169 21.3335 10.7045 21.3335 10.7012V10.7012Z" fill="#61646B"/>
</svg>
