<svg width="36" height="36" viewBox="0 0 36 36" fill="none" xmlns="http://www.w3.org/2000/svg">
<rect x="0.485352" width="35.5143" height="36" rx="8" fill="#EFEFF0"/>
<path d="M18.6748 24.9799L14.6674 24.904C13.3699 24.8775 12.0691 24.9304 10.7971 24.6563C8.86197 24.2468 8.72488 22.2389 8.58143 20.5546C8.38378 18.1868 8.4603 15.776 8.8333 13.4279C9.04388 12.1104 9.87258 11.3242 11.1541 11.2386C15.4803 10.9282 19.8353 10.965 24.1519 11.1098C24.6077 11.1231 25.0668 11.1957 25.5163 11.2783C27.7353 11.6812 27.7894 13.9566 27.9332 15.8721C28.0767 17.8073 28.0161 19.7524 27.7419 21.6745C27.5219 23.2659 27.1011 24.6004 25.325 24.7293C23.0997 24.8977 20.9254 25.0333 18.6938 24.9902C18.6939 24.9799 18.6811 24.9799 18.6748 24.9799ZM16.3188 20.9509C17.9958 19.9535 19.6407 18.9727 21.3081 17.982C19.628 16.9846 17.9862 16.0038 16.3188 15.0131V20.9509Z" fill="#61646B"/>
</svg>
