<svg width="1363" height="297" viewBox="0 0 1363 297" fill="none" xmlns="http://www.w3.org/2000/svg">
<path d="M0 15C0 6.71573 6.71573 0 15 0H37V297H15C6.71573 297 0 290.284 0 282V15Z" fill="#C91761"/>
<path d="M37 0H1006V297H37V0Z" fill="#F0F0F0"/>
<path d="M97.6934 49.4062H102.158L108.732 68.1973L115.307 49.4062H119.771L110.525 75H106.939L97.6934 49.4062ZM95.2852 49.4062H99.7324L100.541 67.7227V75H95.2852V49.4062ZM117.732 49.4062H122.197V75H116.924V67.7227L117.732 49.4062ZM125.695 65.6836V65.3145C125.695 63.9199 125.895 62.6367 126.293 61.4648C126.691 60.2812 127.271 59.2559 128.033 58.3887C128.795 57.5215 129.732 56.8477 130.846 56.3672C131.959 55.875 133.236 55.6289 134.678 55.6289C136.119 55.6289 137.402 55.875 138.527 56.3672C139.652 56.8477 140.596 57.5215 141.357 58.3887C142.131 59.2559 142.717 60.2812 143.115 61.4648C143.514 62.6367 143.713 63.9199 143.713 65.3145V65.6836C143.713 67.0664 143.514 68.3496 143.115 69.5332C142.717 70.7051 142.131 71.7305 141.357 72.6094C140.596 73.4766 139.658 74.1504 138.545 74.6309C137.432 75.1113 136.154 75.3516 134.713 75.3516C133.271 75.3516 131.988 75.1113 130.863 74.6309C129.75 74.1504 128.807 73.4766 128.033 72.6094C127.271 71.7305 126.691 70.7051 126.293 69.5332C125.895 68.3496 125.695 67.0664 125.695 65.6836ZM130.758 65.3145V65.6836C130.758 66.4805 130.828 67.2246 130.969 67.916C131.109 68.6074 131.332 69.2168 131.637 69.7441C131.953 70.2598 132.363 70.6641 132.867 70.957C133.371 71.25 133.986 71.3965 134.713 71.3965C135.416 71.3965 136.02 71.25 136.523 70.957C137.027 70.6641 137.432 70.2598 137.736 69.7441C138.041 69.2168 138.264 68.6074 138.404 67.916C138.557 67.2246 138.633 66.4805 138.633 65.6836V65.3145C138.633 64.541 138.557 63.8145 138.404 63.1348C138.264 62.4434 138.035 61.834 137.719 61.3066C137.414 60.7676 137.01 60.3457 136.506 60.041C136.002 59.7363 135.393 59.584 134.678 59.584C133.963 59.584 133.354 59.7363 132.85 60.041C132.357 60.3457 131.953 60.7676 131.637 61.3066C131.332 61.834 131.109 62.4434 130.969 63.1348C130.828 63.8145 130.758 64.541 130.758 65.3145ZM157.107 69.7441C157.107 69.3809 157.002 69.0527 156.791 68.7598C156.58 68.4668 156.188 68.1973 155.613 67.9512C155.051 67.6934 154.236 67.459 153.17 67.248C152.209 67.0371 151.312 66.7734 150.48 66.457C149.66 66.1289 148.945 65.7363 148.336 65.2793C147.738 64.8223 147.27 64.2832 146.93 63.6621C146.59 63.0293 146.42 62.3086 146.42 61.5C146.42 60.7031 146.59 59.9531 146.93 59.25C147.281 58.5469 147.779 57.9258 148.424 57.3867C149.08 56.8359 149.877 56.4082 150.814 56.1035C151.764 55.7871 152.83 55.6289 154.014 55.6289C155.666 55.6289 157.084 55.8926 158.268 56.4199C159.463 56.9473 160.377 57.6738 161.01 58.5996C161.654 59.5137 161.977 60.5566 161.977 61.7285H156.914C156.914 61.2363 156.809 60.7969 156.598 60.4102C156.398 60.0117 156.082 59.7012 155.648 59.4785C155.227 59.2441 154.676 59.127 153.996 59.127C153.434 59.127 152.947 59.2266 152.537 59.4258C152.127 59.6133 151.811 59.8711 151.588 60.1992C151.377 60.5156 151.271 60.8672 151.271 61.2539C151.271 61.5469 151.33 61.8105 151.447 62.0449C151.576 62.2676 151.781 62.4727 152.062 62.6602C152.344 62.8477 152.707 63.0234 153.152 63.1875C153.609 63.3398 154.172 63.4805 154.84 63.6094C156.211 63.8906 157.436 64.2598 158.514 64.7168C159.592 65.1621 160.447 65.7715 161.08 66.5449C161.713 67.3066 162.029 68.3086 162.029 69.5508C162.029 70.3945 161.842 71.168 161.467 71.8711C161.092 72.5742 160.553 73.1895 159.85 73.7168C159.146 74.2324 158.303 74.6367 157.318 74.9297C156.346 75.2109 155.25 75.3516 154.031 75.3516C152.262 75.3516 150.762 75.0352 149.531 74.4023C148.312 73.7695 147.387 72.9668 146.754 71.9941C146.133 71.0098 145.822 70.002 145.822 68.9707H150.621C150.645 69.6621 150.82 70.2188 151.148 70.6406C151.488 71.0625 151.916 71.3672 152.432 71.5547C152.959 71.7422 153.527 71.8359 154.137 71.8359C154.793 71.8359 155.338 71.748 155.771 71.5723C156.205 71.3848 156.533 71.1387 156.756 70.834C156.99 70.5176 157.107 70.1543 157.107 69.7441ZM174.633 55.9805V59.5664H163.559V55.9805H174.633ZM166.301 51.2871H171.363V69.2695C171.363 69.8203 171.434 70.2422 171.574 70.5352C171.727 70.8281 171.949 71.0332 172.242 71.1504C172.535 71.2559 172.904 71.3086 173.35 71.3086C173.666 71.3086 173.947 71.2969 174.193 71.2734C174.451 71.2383 174.668 71.2031 174.844 71.168L174.861 74.8945C174.428 75.0352 173.959 75.1465 173.455 75.2285C172.951 75.3105 172.395 75.3516 171.785 75.3516C170.672 75.3516 169.699 75.1699 168.867 74.8066C168.047 74.4316 167.414 73.834 166.969 73.0137C166.523 72.1934 166.301 71.1152 166.301 69.7793V51.2871ZM187.781 70.7109V62.2383C187.781 61.6289 187.682 61.1074 187.482 60.6738C187.283 60.2285 186.973 59.8828 186.551 59.6367C186.141 59.3906 185.607 59.2676 184.951 59.2676C184.389 59.2676 183.902 59.3672 183.492 59.5664C183.082 59.7539 182.766 60.0293 182.543 60.3926C182.32 60.7441 182.209 61.1602 182.209 61.6406H177.146C177.146 60.832 177.334 60.0645 177.709 59.3379C178.084 58.6113 178.629 57.9727 179.344 57.4219C180.059 56.8594 180.908 56.4199 181.893 56.1035C182.889 55.7871 184.002 55.6289 185.232 55.6289C186.709 55.6289 188.021 55.875 189.17 56.3672C190.318 56.8594 191.221 57.5977 191.877 58.582C192.545 59.5664 192.879 60.7969 192.879 62.2734V70.4121C192.879 71.4551 192.943 72.3105 193.072 72.9785C193.201 73.6348 193.389 74.209 193.635 74.7012V75H188.52C188.273 74.4844 188.086 73.8398 187.957 73.0664C187.84 72.2812 187.781 71.4961 187.781 70.7109ZM188.449 63.416L188.484 66.2812H185.654C184.986 66.2812 184.406 66.3574 183.914 66.5098C183.422 66.6621 183.018 66.8789 182.701 67.1602C182.385 67.4297 182.15 67.7461 181.998 68.1094C181.857 68.4727 181.787 68.8711 181.787 69.3047C181.787 69.7383 181.887 70.1309 182.086 70.4824C182.285 70.8223 182.572 71.0918 182.947 71.291C183.322 71.4785 183.762 71.5723 184.266 71.5723C185.027 71.5723 185.689 71.4199 186.252 71.1152C186.814 70.8105 187.248 70.4355 187.553 69.9902C187.869 69.5449 188.033 69.123 188.045 68.7246L189.381 70.8691C189.193 71.3496 188.936 71.8477 188.607 72.3633C188.291 72.8789 187.887 73.3652 187.395 73.8223C186.902 74.2676 186.311 74.6367 185.619 74.9297C184.928 75.2109 184.107 75.3516 183.158 75.3516C181.951 75.3516 180.855 75.1113 179.871 74.6309C178.898 74.1387 178.125 73.4648 177.551 72.6094C176.988 71.7422 176.707 70.7578 176.707 69.6562C176.707 68.6602 176.895 67.7754 177.27 67.002C177.645 66.2285 178.195 65.5781 178.922 65.0508C179.66 64.5117 180.58 64.1074 181.682 63.8379C182.783 63.5566 184.061 63.416 185.514 63.416H188.449ZM203.232 75H198.135V54.293C198.135 52.8516 198.416 51.6387 198.979 50.6543C199.553 49.6582 200.355 48.9082 201.387 48.4043C202.43 47.8887 203.666 47.6309 205.096 47.6309C205.564 47.6309 206.016 47.666 206.449 47.7363C206.883 47.7949 207.305 47.8711 207.715 47.9648L207.662 51.7793C207.439 51.7207 207.205 51.6797 206.959 51.6562C206.713 51.6328 206.426 51.6211 206.098 51.6211C205.488 51.6211 204.967 51.7266 204.533 51.9375C204.111 52.1367 203.789 52.4355 203.566 52.834C203.344 53.2324 203.232 53.7188 203.232 54.293V75ZM207.029 55.9805V59.5664H195.305V55.9805H207.029ZM219.949 70.7109V62.2383C219.949 61.6289 219.85 61.1074 219.65 60.6738C219.451 60.2285 219.141 59.8828 218.719 59.6367C218.309 59.3906 217.775 59.2676 217.119 59.2676C216.557 59.2676 216.07 59.3672 215.66 59.5664C215.25 59.7539 214.934 60.0293 214.711 60.3926C214.488 60.7441 214.377 61.1602 214.377 61.6406H209.314C209.314 60.832 209.502 60.0645 209.877 59.3379C210.252 58.6113 210.797 57.9727 211.512 57.4219C212.227 56.8594 213.076 56.4199 214.061 56.1035C215.057 55.7871 216.17 55.6289 217.4 55.6289C218.877 55.6289 220.189 55.875 221.338 56.3672C222.486 56.8594 223.389 57.5977 224.045 58.582C224.713 59.5664 225.047 60.7969 225.047 62.2734V70.4121C225.047 71.4551 225.111 72.3105 225.24 72.9785C225.369 73.6348 225.557 74.209 225.803 74.7012V75H220.688C220.441 74.4844 220.254 73.8398 220.125 73.0664C220.008 72.2812 219.949 71.4961 219.949 70.7109ZM220.617 63.416L220.652 66.2812H217.822C217.154 66.2812 216.574 66.3574 216.082 66.5098C215.59 66.6621 215.186 66.8789 214.869 67.1602C214.553 67.4297 214.318 67.7461 214.166 68.1094C214.025 68.4727 213.955 68.8711 213.955 69.3047C213.955 69.7383 214.055 70.1309 214.254 70.4824C214.453 70.8223 214.74 71.0918 215.115 71.291C215.49 71.4785 215.93 71.5723 216.434 71.5723C217.195 71.5723 217.857 71.4199 218.42 71.1152C218.982 70.8105 219.416 70.4355 219.721 69.9902C220.037 69.5449 220.201 69.123 220.213 68.7246L221.549 70.8691C221.361 71.3496 221.104 71.8477 220.775 72.3633C220.459 72.8789 220.055 73.3652 219.562 73.8223C219.07 74.2676 218.479 74.6367 217.787 74.9297C217.096 75.2109 216.275 75.3516 215.326 75.3516C214.119 75.3516 213.023 75.1113 212.039 74.6309C211.066 74.1387 210.293 73.4648 209.719 72.6094C209.156 71.7422 208.875 70.7578 208.875 69.6562C208.875 68.6602 209.062 67.7754 209.438 67.002C209.812 66.2285 210.363 65.5781 211.09 65.0508C211.828 64.5117 212.748 64.1074 213.85 63.8379C214.951 63.5566 216.229 63.416 217.682 63.416H220.617ZM243.504 49.4062V75H238.23V49.4062H243.504ZM258.832 49.4062L248.689 62.0449L242.836 68.3379L241.887 63.3457L245.842 57.9316L252.363 49.4062H258.832ZM252.838 75L245.297 63.1699L249.199 59.9004L259.078 75H252.838ZM265.863 60.1289V75H260.801V55.9805H265.564L265.863 60.1289ZM271.594 55.8574L271.506 60.5508C271.26 60.5156 270.961 60.4863 270.609 60.4629C270.27 60.4277 269.959 60.4102 269.678 60.4102C268.963 60.4102 268.342 60.5039 267.814 60.6914C267.299 60.8672 266.865 61.1309 266.514 61.4824C266.174 61.834 265.916 62.2617 265.74 62.7656C265.576 63.2695 265.482 63.8438 265.459 64.4883L264.439 64.1719C264.439 62.9414 264.562 61.8105 264.809 60.7793C265.055 59.7363 265.412 58.8281 265.881 58.0547C266.361 57.2812 266.947 56.6836 267.639 56.2617C268.33 55.8398 269.121 55.6289 270.012 55.6289C270.293 55.6289 270.58 55.6523 270.873 55.6992C271.166 55.7344 271.406 55.7871 271.594 55.8574ZM282.387 75.3516C280.91 75.3516 279.586 75.1172 278.414 74.6484C277.242 74.168 276.246 73.5059 275.426 72.6621C274.617 71.8184 273.996 70.8398 273.562 69.7266C273.129 68.6016 272.912 67.4062 272.912 66.1406V65.4375C272.912 63.9961 273.117 62.6777 273.527 61.4824C273.938 60.2871 274.523 59.25 275.285 58.3711C276.059 57.4922 276.996 56.8184 278.098 56.3496C279.199 55.8691 280.441 55.6289 281.824 55.6289C283.172 55.6289 284.367 55.8516 285.41 56.2969C286.453 56.7422 287.326 57.375 288.029 58.1953C288.744 59.0156 289.283 60 289.646 61.1484C290.01 62.2852 290.191 63.5508 290.191 64.9453V67.0547H275.074V63.6797H285.217V63.293C285.217 62.5898 285.088 61.9629 284.83 61.4121C284.584 60.8496 284.209 60.4043 283.705 60.0762C283.201 59.748 282.557 59.584 281.771 59.584C281.104 59.584 280.529 59.7305 280.049 60.0234C279.568 60.3164 279.176 60.7266 278.871 61.2539C278.578 61.7812 278.355 62.4023 278.203 63.1172C278.062 63.8203 277.992 64.5938 277.992 65.4375V66.1406C277.992 66.9023 278.098 67.6055 278.309 68.25C278.531 68.8945 278.842 69.4512 279.24 69.9199C279.65 70.3887 280.143 70.752 280.717 71.0098C281.303 71.2676 281.965 71.3965 282.703 71.3965C283.617 71.3965 284.467 71.2207 285.252 70.8691C286.049 70.5059 286.734 69.9609 287.309 69.2344L289.77 71.9062C289.371 72.4805 288.826 73.0312 288.135 73.5586C287.455 74.0859 286.635 74.5195 285.674 74.8594C284.713 75.1875 283.617 75.3516 282.387 75.3516ZM298.418 55.9805V75H293.338V55.9805H298.418ZM293.021 51.0234C293.021 50.2852 293.279 49.6758 293.795 49.1953C294.311 48.7148 295.002 48.4746 295.869 48.4746C296.725 48.4746 297.41 48.7148 297.926 49.1953C298.453 49.6758 298.717 50.2852 298.717 51.0234C298.717 51.7617 298.453 52.3711 297.926 52.8516C297.41 53.332 296.725 53.5723 295.869 53.5723C295.002 53.5723 294.311 53.332 293.795 52.8516C293.279 52.3711 293.021 51.7617 293.021 51.0234ZM313.834 70.8516V48H318.932V75H314.344L313.834 70.8516ZM301.811 65.7188V65.3496C301.811 63.8965 301.975 62.5781 302.303 61.3945C302.631 60.1992 303.111 59.1738 303.744 58.3184C304.377 57.4629 305.156 56.8008 306.082 56.332C307.008 55.8633 308.062 55.6289 309.246 55.6289C310.359 55.6289 311.332 55.8633 312.164 56.332C313.008 56.8008 313.723 57.4688 314.309 58.3359C314.906 59.1914 315.387 60.2051 315.75 61.377C316.113 62.5371 316.377 63.8086 316.541 65.1914V66C316.377 67.3242 316.113 68.5547 315.75 69.6914C315.387 70.8281 314.906 71.8242 314.309 72.6797C313.723 73.5234 313.008 74.1797 312.164 74.6484C311.32 75.1172 310.336 75.3516 309.211 75.3516C308.027 75.3516 306.973 75.1113 306.047 74.6309C305.133 74.1504 304.359 73.4766 303.727 72.6094C303.105 71.7422 302.631 70.7227 302.303 69.5508C301.975 68.3789 301.811 67.1016 301.811 65.7188ZM306.873 65.3496V65.7188C306.873 66.5039 306.932 67.2363 307.049 67.916C307.178 68.5957 307.383 69.1992 307.664 69.7266C307.957 70.2422 308.332 70.6465 308.789 70.9395C309.258 71.2207 309.826 71.3613 310.494 71.3613C311.361 71.3613 312.076 71.168 312.639 70.7812C313.201 70.3828 313.629 69.8379 313.922 69.1465C314.227 68.4551 314.402 67.6582 314.449 66.7559V64.4531C314.414 63.7148 314.309 63.0527 314.133 62.4668C313.969 61.8691 313.723 61.3594 313.395 60.9375C313.078 60.5156 312.68 60.1875 312.199 59.9531C311.73 59.7188 311.174 59.6016 310.529 59.6016C309.873 59.6016 309.311 59.7539 308.842 60.0586C308.373 60.3516 307.992 60.7559 307.699 61.2715C307.418 61.7871 307.207 62.3965 307.066 63.0996C306.938 63.791 306.873 64.541 306.873 65.3496ZM328.23 48V75H323.15V48H328.23ZM338.057 72.8555L343.102 55.9805H348.533L340.887 77.8652C340.723 78.3457 340.5 78.8613 340.219 79.4121C339.949 79.9629 339.58 80.4844 339.111 80.9766C338.654 81.4805 338.074 81.8906 337.371 82.207C336.68 82.5234 335.83 82.6816 334.822 82.6816C334.342 82.6816 333.949 82.6523 333.645 82.5938C333.34 82.5352 332.977 82.4531 332.555 82.3477V78.6387C332.684 78.6387 332.818 78.6387 332.959 78.6387C333.1 78.6504 333.234 78.6562 333.363 78.6562C334.031 78.6562 334.576 78.5801 334.998 78.4277C335.42 78.2754 335.76 78.041 336.018 77.7246C336.275 77.4199 336.48 77.0215 336.633 76.5293L338.057 72.8555ZM335.947 55.9805L340.078 69.7617L340.799 75.123L337.354 75.4922L330.516 55.9805H335.947Z" fill="#888888"/>
<path d="M111.102 130.621L119.387 100.188H130.133L116.707 140H109.762L111.102 130.621ZM103.582 100.188L111.867 130.621L113.262 140H106.234L92.8906 100.188H103.582ZM142.355 110.414V140H133.113V110.414H142.355ZM132.566 102.785C132.566 101.473 133.04 100.397 133.988 99.5586C134.936 98.7201 136.167 98.3008 137.68 98.3008C139.193 98.3008 140.423 98.7201 141.371 99.5586C142.319 100.397 142.793 101.473 142.793 102.785C142.793 104.098 142.319 105.173 141.371 106.012C140.423 106.85 139.193 107.27 137.68 107.27C136.167 107.27 134.936 106.85 133.988 106.012C133.04 105.173 132.566 104.098 132.566 102.785ZM172.379 132.891V140H149.465V132.891H172.379ZM172.105 115.391L153.594 140H147.277V134.859L165.762 110.414H172.105V115.391ZM169.07 110.414V117.523H147.824V110.414H169.07ZM186.652 110.414V140H177.41V110.414H186.652ZM176.863 102.785C176.863 101.473 177.337 100.397 178.285 99.5586C179.233 98.7201 180.464 98.3008 181.977 98.3008C183.49 98.3008 184.72 98.7201 185.668 99.5586C186.616 100.397 187.09 101.473 187.09 102.785C187.09 104.098 186.616 105.173 185.668 106.012C184.72 106.85 183.49 107.27 181.977 107.27C180.464 107.27 179.233 106.85 178.285 106.012C177.337 105.173 176.863 104.098 176.863 102.785Z" fill="black"/>
<rect x="93" y="178" width="857" height="77" rx="10" fill="#D3D3D3"/>
<rect x="111" y="196" width="91" height="41" rx="3" fill="#424242"/>
<path d="M134.141 210.203H139.177C140.161 210.203 141.017 210.35 141.743 210.643C142.47 210.936 143.029 211.369 143.422 211.943C143.82 212.518 144.02 213.227 144.02 214.07C144.02 214.803 143.905 215.415 143.677 215.907C143.448 216.399 143.129 216.807 142.719 217.129C142.314 217.445 141.843 217.706 141.304 217.911L140.293 218.482H136.065L136.048 216.101H139.177C139.569 216.101 139.895 216.03 140.152 215.89C140.41 215.749 140.604 215.55 140.732 215.292C140.867 215.028 140.935 214.715 140.935 214.352C140.935 213.982 140.867 213.666 140.732 213.402C140.598 213.139 140.398 212.937 140.135 212.796C139.877 212.655 139.558 212.585 139.177 212.585H137.226V223H134.141V210.203ZM141.146 223L138.315 217.34L141.585 217.322L144.45 222.868V223H141.146ZM150.348 223.176C149.574 223.176 148.883 223.056 148.273 222.815C147.664 222.569 147.148 222.232 146.727 221.805C146.311 221.377 145.991 220.885 145.769 220.328C145.552 219.771 145.443 219.183 145.443 218.562V218.228C145.443 217.53 145.54 216.886 145.733 216.294C145.927 215.696 146.214 215.175 146.595 214.729C146.976 214.284 147.453 213.938 148.027 213.692C148.602 213.44 149.27 213.314 150.031 213.314C150.705 213.314 151.309 213.423 151.842 213.64C152.375 213.856 152.826 214.167 153.195 214.571C153.57 214.976 153.854 215.465 154.048 216.039C154.247 216.613 154.347 217.258 154.347 217.973V219.177H146.577V217.322H151.455V217.094C151.461 216.777 151.405 216.508 151.288 216.285C151.177 216.062 151.013 215.893 150.796 215.775C150.579 215.658 150.315 215.6 150.005 215.6C149.683 215.6 149.416 215.67 149.205 215.811C149 215.951 148.839 216.145 148.722 216.391C148.61 216.631 148.531 216.909 148.484 217.226C148.438 217.542 148.414 217.876 148.414 218.228V218.562C148.414 218.913 148.461 219.232 148.555 219.52C148.654 219.807 148.795 220.053 148.977 220.258C149.164 220.457 149.387 220.612 149.645 220.724C149.908 220.835 150.207 220.891 150.541 220.891C150.945 220.891 151.344 220.814 151.736 220.662C152.129 220.51 152.466 220.258 152.747 219.906L154.092 221.506C153.898 221.781 153.623 222.048 153.266 222.306C152.914 222.563 152.492 222.774 152 222.938C151.508 223.097 150.957 223.176 150.348 223.176ZM160.49 220.609V216.689C160.49 216.42 160.452 216.188 160.376 215.995C160.3 215.802 160.18 215.652 160.016 215.547C159.852 215.436 159.632 215.38 159.356 215.38C159.134 215.38 158.943 215.418 158.785 215.494C158.627 215.57 158.507 215.685 158.425 215.837C158.343 215.989 158.302 216.183 158.302 216.417H155.34C155.34 215.978 155.437 215.57 155.63 215.195C155.829 214.814 156.11 214.483 156.474 214.202C156.843 213.921 157.282 213.704 157.792 213.552C158.308 213.394 158.882 213.314 159.515 213.314C160.271 213.314 160.944 213.44 161.536 213.692C162.134 213.944 162.605 214.322 162.951 214.826C163.297 215.324 163.47 215.951 163.47 216.707V220.601C163.47 221.222 163.505 221.693 163.575 222.016C163.646 222.332 163.745 222.61 163.874 222.851V223H160.903C160.763 222.707 160.657 222.35 160.587 221.928C160.522 221.5 160.49 221.061 160.49 220.609ZM160.851 217.19L160.868 218.772H159.559C159.283 218.772 159.049 218.811 158.855 218.887C158.668 218.963 158.516 219.068 158.398 219.203C158.287 219.332 158.205 219.479 158.152 219.643C158.105 219.807 158.082 219.979 158.082 220.161C158.082 220.337 158.123 220.495 158.205 220.636C158.293 220.771 158.41 220.876 158.557 220.952C158.703 221.028 158.867 221.066 159.049 221.066C159.377 221.066 159.655 221.005 159.884 220.882C160.118 220.753 160.297 220.598 160.42 220.416C160.543 220.234 160.604 220.064 160.604 219.906L161.255 221.119C161.138 221.354 161.003 221.591 160.851 221.831C160.704 222.071 160.52 222.294 160.297 222.499C160.08 222.698 159.813 222.862 159.497 222.991C159.181 223.114 158.797 223.176 158.346 223.176C157.76 223.176 157.221 223.056 156.729 222.815C156.242 222.575 155.853 222.241 155.56 221.813C155.267 221.38 155.12 220.882 155.12 220.319C155.12 219.827 155.208 219.388 155.384 219.001C155.565 218.614 155.838 218.286 156.201 218.017C156.564 217.747 157.027 217.542 157.59 217.401C158.152 217.261 158.814 217.19 159.576 217.19H160.851ZM169.13 220.891C169.405 220.891 169.64 220.841 169.833 220.741C170.032 220.636 170.182 220.489 170.281 220.302C170.387 220.108 170.437 219.877 170.431 219.607H173.217C173.223 220.322 173.047 220.949 172.689 221.488C172.338 222.021 171.857 222.438 171.248 222.736C170.645 223.029 169.962 223.176 169.2 223.176C168.456 223.176 167.806 223.056 167.249 222.815C166.692 222.569 166.227 222.229 165.852 221.796C165.482 221.356 165.204 220.844 165.017 220.258C164.835 219.672 164.744 219.036 164.744 218.351V218.148C164.744 217.463 164.835 216.827 165.017 216.241C165.204 215.649 165.482 215.137 165.852 214.703C166.227 214.264 166.689 213.924 167.24 213.684C167.797 213.438 168.444 213.314 169.183 213.314C169.974 213.314 170.671 213.464 171.274 213.763C171.884 214.062 172.361 214.495 172.707 215.063C173.053 215.632 173.223 216.32 173.217 217.129H170.431C170.437 216.842 170.393 216.584 170.299 216.355C170.205 216.127 170.059 215.945 169.859 215.811C169.666 215.67 169.417 215.6 169.112 215.6C168.808 215.6 168.562 215.667 168.374 215.802C168.187 215.937 168.043 216.124 167.943 216.364C167.85 216.599 167.785 216.868 167.75 217.173C167.721 217.478 167.706 217.803 167.706 218.148V218.351C167.706 218.702 167.721 219.033 167.75 219.344C167.785 219.648 167.853 219.918 167.952 220.152C168.052 220.381 168.195 220.562 168.383 220.697C168.57 220.826 168.819 220.891 169.13 220.891ZM179.492 213.49V215.547H173.762V213.49H179.492ZM174.966 211.126H177.928V219.897C177.928 220.149 177.957 220.346 178.016 220.486C178.074 220.621 178.174 220.718 178.314 220.776C178.461 220.829 178.654 220.855 178.895 220.855C179.064 220.855 179.205 220.853 179.316 220.847C179.428 220.835 179.533 220.82 179.633 220.803V222.921C179.381 223.003 179.117 223.064 178.842 223.105C178.566 223.152 178.273 223.176 177.963 223.176C177.33 223.176 176.788 223.076 176.337 222.877C175.892 222.678 175.552 222.364 175.317 221.937C175.083 221.509 174.966 220.952 174.966 220.267V211.126Z" fill="white"/>
<rect x="111" y="196" width="91" height="41" rx="3" stroke="#424242" stroke-width="4"/>
<rect x="222" y="196" width="130" height="41" rx="3" fill="#424242"/>
<path d="M253.883 220.627V223H247.062V220.627H253.883ZM248.161 210.203V223H245.076V210.203H248.161ZM253.004 215.283V217.577H247.062V215.283H253.004ZM253.909 210.203V212.585H247.062V210.203H253.909ZM257.521 213.49L258.857 216.109L260.237 213.49H263.313L260.817 218.122L263.445 223H260.343L258.857 220.188L257.381 223H254.278L256.906 218.122L254.419 213.49H257.521ZM267.277 215.318V226.656H264.315V213.49H267.075L267.277 215.318ZM273.113 218.131V218.315C273.113 219.007 273.034 219.648 272.876 220.24C272.718 220.832 272.483 221.348 272.173 221.787C271.862 222.227 271.476 222.569 271.013 222.815C270.556 223.056 270.025 223.176 269.422 223.176C268.854 223.176 268.364 223.05 267.954 222.798C267.544 222.546 267.201 222.197 266.926 221.752C266.65 221.307 266.428 220.797 266.258 220.223C266.088 219.648 265.953 219.042 265.854 218.403V218.166C265.953 217.48 266.088 216.845 266.258 216.259C266.428 215.667 266.65 215.151 266.926 214.712C267.201 214.272 267.541 213.93 267.945 213.684C268.355 213.438 268.845 213.314 269.413 213.314C270.017 213.314 270.547 213.429 271.004 213.657C271.467 213.886 271.854 214.214 272.164 214.642C272.48 215.063 272.718 215.57 272.876 216.162C273.034 216.754 273.113 217.41 273.113 218.131ZM270.151 218.315V218.131C270.151 217.762 270.125 217.425 270.072 217.12C270.02 216.81 269.935 216.54 269.817 216.312C269.706 216.083 269.557 215.907 269.369 215.784C269.182 215.661 268.95 215.6 268.675 215.6C268.358 215.6 268.092 215.649 267.875 215.749C267.664 215.843 267.494 215.989 267.365 216.188C267.242 216.382 267.154 216.625 267.102 216.918C267.055 217.205 267.034 217.542 267.04 217.929V218.649C267.028 219.095 267.072 219.487 267.172 219.827C267.271 220.161 267.444 220.422 267.69 220.609C267.937 220.797 268.271 220.891 268.692 220.891C268.974 220.891 269.208 220.826 269.396 220.697C269.583 220.562 269.732 220.378 269.844 220.144C269.955 219.903 270.034 219.628 270.081 219.317C270.128 219.007 270.151 218.673 270.151 218.315ZM277.42 215.846V223H274.458V213.49H277.227L277.42 215.846ZM280.232 213.42L280.18 216.171C280.062 216.159 279.904 216.145 279.705 216.127C279.506 216.109 279.339 216.101 279.204 216.101C278.858 216.101 278.56 216.142 278.308 216.224C278.062 216.3 277.856 216.417 277.692 216.575C277.534 216.728 277.417 216.921 277.341 217.155C277.271 217.39 277.238 217.662 277.244 217.973L276.708 217.621C276.708 216.982 276.77 216.402 276.893 215.881C277.021 215.354 277.203 214.899 277.438 214.519C277.672 214.132 277.956 213.836 278.29 213.631C278.624 213.42 278.999 213.314 279.415 213.314C279.562 213.314 279.705 213.323 279.846 213.341C279.992 213.358 280.121 213.385 280.232 213.42ZM285.682 223.176C284.908 223.176 284.217 223.056 283.607 222.815C282.998 222.569 282.482 222.232 282.061 221.805C281.645 221.377 281.325 220.885 281.103 220.328C280.886 219.771 280.777 219.183 280.777 218.562V218.228C280.777 217.53 280.874 216.886 281.067 216.294C281.261 215.696 281.548 215.175 281.929 214.729C282.31 214.284 282.787 213.938 283.361 213.692C283.936 213.44 284.604 213.314 285.365 213.314C286.039 213.314 286.643 213.423 287.176 213.64C287.709 213.856 288.16 214.167 288.529 214.571C288.904 214.976 289.188 215.465 289.382 216.039C289.581 216.613 289.681 217.258 289.681 217.973V219.177H281.911V217.322H286.789V217.094C286.795 216.777 286.739 216.508 286.622 216.285C286.511 216.062 286.347 215.893 286.13 215.775C285.913 215.658 285.649 215.6 285.339 215.6C285.017 215.6 284.75 215.67 284.539 215.811C284.334 215.951 284.173 216.145 284.056 216.391C283.944 216.631 283.865 216.909 283.818 217.226C283.771 217.542 283.748 217.876 283.748 218.228V218.562C283.748 218.913 283.795 219.232 283.889 219.52C283.988 219.807 284.129 220.053 284.311 220.258C284.498 220.457 284.721 220.612 284.979 220.724C285.242 220.835 285.541 220.891 285.875 220.891C286.279 220.891 286.678 220.814 287.07 220.662C287.463 220.51 287.8 220.258 288.081 219.906L289.426 221.506C289.232 221.781 288.957 222.048 288.6 222.306C288.248 222.563 287.826 222.774 287.334 222.938C286.842 223.097 286.291 223.176 285.682 223.176ZM295.868 220.328C295.868 220.164 295.812 220.023 295.701 219.906C295.596 219.783 295.408 219.672 295.139 219.572C294.869 219.467 294.491 219.361 294.005 219.256C293.542 219.156 293.105 219.024 292.695 218.86C292.291 218.696 291.937 218.497 291.632 218.263C291.327 218.028 291.087 217.75 290.911 217.428C290.741 217.105 290.656 216.736 290.656 216.32C290.656 215.916 290.741 215.535 290.911 215.178C291.087 214.814 291.342 214.495 291.676 214.22C292.016 213.938 292.429 213.719 292.915 213.561C293.401 213.396 293.955 213.314 294.576 213.314C295.432 213.314 296.17 213.446 296.791 213.71C297.412 213.968 297.89 214.331 298.224 214.8C298.563 215.263 298.733 215.799 298.733 216.408H295.771C295.771 216.168 295.73 215.963 295.648 215.793C295.572 215.623 295.446 215.494 295.271 215.406C295.095 215.312 294.86 215.266 294.567 215.266C294.362 215.266 294.175 215.304 294.005 215.38C293.841 215.456 293.709 215.562 293.609 215.696C293.51 215.831 293.46 215.989 293.46 216.171C293.46 216.3 293.489 216.417 293.548 216.522C293.612 216.622 293.709 216.716 293.838 216.804C293.967 216.886 294.131 216.962 294.33 217.032C294.529 217.097 294.77 217.155 295.051 217.208C295.689 217.325 296.287 217.492 296.844 217.709C297.4 217.926 297.852 218.233 298.197 218.632C298.549 219.03 298.725 219.566 298.725 220.24C298.725 220.662 298.628 221.052 298.435 221.409C298.241 221.761 297.963 222.071 297.6 222.341C297.236 222.604 296.8 222.81 296.29 222.956C295.78 223.103 295.206 223.176 294.567 223.176C293.659 223.176 292.892 223.015 292.265 222.692C291.638 222.364 291.163 221.954 290.841 221.462C290.524 220.964 290.366 220.46 290.366 219.95H293.126C293.138 220.243 293.208 220.483 293.337 220.671C293.472 220.858 293.65 220.996 293.873 221.084C294.096 221.172 294.354 221.216 294.646 221.216C294.916 221.216 295.139 221.178 295.314 221.102C295.496 221.025 295.634 220.923 295.728 220.794C295.821 220.659 295.868 220.504 295.868 220.328ZM305.097 220.328C305.097 220.164 305.041 220.023 304.93 219.906C304.824 219.783 304.637 219.672 304.367 219.572C304.098 219.467 303.72 219.361 303.233 219.256C302.771 219.156 302.334 219.024 301.924 218.86C301.52 218.696 301.165 218.497 300.86 218.263C300.556 218.028 300.315 217.75 300.14 217.428C299.97 217.105 299.885 216.736 299.885 216.32C299.885 215.916 299.97 215.535 300.14 215.178C300.315 214.814 300.57 214.495 300.904 214.22C301.244 213.938 301.657 213.719 302.144 213.561C302.63 213.396 303.184 213.314 303.805 213.314C304.66 213.314 305.398 213.446 306.02 213.71C306.641 213.968 307.118 214.331 307.452 214.8C307.792 215.263 307.962 215.799 307.962 216.408H305C305 216.168 304.959 215.963 304.877 215.793C304.801 215.623 304.675 215.494 304.499 215.406C304.323 215.312 304.089 215.266 303.796 215.266C303.591 215.266 303.403 215.304 303.233 215.38C303.069 215.456 302.938 215.562 302.838 215.696C302.738 215.831 302.688 215.989 302.688 216.171C302.688 216.3 302.718 216.417 302.776 216.522C302.841 216.622 302.938 216.716 303.066 216.804C303.195 216.886 303.359 216.962 303.559 217.032C303.758 217.097 303.998 217.155 304.279 217.208C304.918 217.325 305.516 217.492 306.072 217.709C306.629 217.926 307.08 218.233 307.426 218.632C307.777 219.03 307.953 219.566 307.953 220.24C307.953 220.662 307.856 221.052 307.663 221.409C307.47 221.761 307.191 222.071 306.828 222.341C306.465 222.604 306.028 222.81 305.519 222.956C305.009 223.103 304.435 223.176 303.796 223.176C302.888 223.176 302.12 223.015 301.493 222.692C300.866 222.364 300.392 221.954 300.069 221.462C299.753 220.964 299.595 220.46 299.595 219.95H302.354C302.366 220.243 302.437 220.483 302.565 220.671C302.7 220.858 302.879 220.996 303.102 221.084C303.324 221.172 303.582 221.216 303.875 221.216C304.145 221.216 304.367 221.178 304.543 221.102C304.725 221.025 304.862 220.923 304.956 220.794C305.05 220.659 305.097 220.504 305.097 220.328ZM314.571 218.983V210.203H317.647V218.983C317.647 219.839 317.451 220.58 317.059 221.207C316.672 221.834 316.145 222.32 315.477 222.666C314.814 223.006 314.07 223.176 313.244 223.176C312.389 223.176 311.627 223.032 310.959 222.745C310.297 222.458 309.775 222.016 309.395 221.418C309.02 220.82 308.832 220.059 308.832 219.133H311.926C311.926 219.566 311.976 219.906 312.075 220.152C312.175 220.393 312.321 220.562 312.515 220.662C312.714 220.756 312.957 220.803 313.244 220.803C313.525 220.803 313.763 220.732 313.956 220.592C314.155 220.445 314.308 220.237 314.413 219.968C314.519 219.692 314.571 219.364 314.571 218.983ZM326.199 219.599C326.199 219.399 326.17 219.221 326.111 219.062C326.053 218.898 325.944 218.746 325.786 218.605C325.628 218.465 325.399 218.324 325.101 218.184C324.808 218.037 324.421 217.885 323.94 217.727C323.378 217.539 322.836 217.328 322.314 217.094C321.793 216.854 321.327 216.575 320.917 216.259C320.507 215.937 320.182 215.562 319.941 215.134C319.701 214.7 319.581 214.196 319.581 213.622C319.581 213.071 319.704 212.576 319.95 212.137C320.196 211.691 320.539 211.313 320.979 211.003C321.424 210.687 321.945 210.446 322.543 210.282C323.141 210.112 323.794 210.027 324.503 210.027C325.44 210.027 326.267 210.191 326.981 210.52C327.702 210.842 328.265 211.302 328.669 211.899C329.079 212.491 329.284 213.191 329.284 214H326.217C326.217 213.678 326.149 213.394 326.015 213.147C325.886 212.901 325.689 212.708 325.426 212.567C325.162 212.427 324.831 212.356 324.433 212.356C324.046 212.356 323.721 212.415 323.457 212.532C323.193 212.649 322.994 212.808 322.859 213.007C322.725 213.2 322.657 213.414 322.657 213.648C322.657 213.842 322.71 214.018 322.815 214.176C322.927 214.328 323.082 214.472 323.281 214.606C323.486 214.741 323.732 214.87 324.02 214.993C324.312 215.116 324.641 215.236 325.004 215.354C325.684 215.57 326.287 215.813 326.814 216.083C327.348 216.347 327.796 216.648 328.159 216.988C328.528 217.322 328.807 217.703 328.994 218.131C329.188 218.559 329.284 219.042 329.284 219.581C329.284 220.155 329.173 220.665 328.95 221.11C328.728 221.556 328.408 221.934 327.992 222.244C327.576 222.549 327.078 222.78 326.498 222.938C325.918 223.097 325.271 223.176 324.556 223.176C323.899 223.176 323.252 223.094 322.613 222.93C321.98 222.76 321.406 222.502 320.891 222.156C320.375 221.805 319.962 221.356 319.651 220.812C319.347 220.261 319.194 219.607 319.194 218.852H322.288C322.288 219.227 322.338 219.543 322.438 219.801C322.537 220.059 322.684 220.267 322.877 220.425C323.07 220.577 323.308 220.688 323.589 220.759C323.87 220.823 324.192 220.855 324.556 220.855C324.948 220.855 325.265 220.8 325.505 220.688C325.745 220.571 325.921 220.419 326.032 220.231C326.144 220.038 326.199 219.827 326.199 219.599Z" fill="white"/>
<rect x="222" y="196" width="130" height="41" rx="3" stroke="#424242" stroke-width="4"/>
<rect x="372" y="196" width="109" height="41" rx="3" fill="#424242"/>
<path d="M406.118 210.203V223H403.042L398.516 215.037V223H395.431V210.203H398.516L403.042 218.166V210.203H406.118ZM407.56 218.342V218.157C407.56 217.46 407.659 216.818 407.858 216.232C408.058 215.641 408.351 215.128 408.737 214.694C409.124 214.261 409.602 213.924 410.17 213.684C410.738 213.438 411.395 213.314 412.139 213.314C412.889 213.314 413.548 213.438 414.116 213.684C414.69 213.924 415.171 214.261 415.558 214.694C415.944 215.128 416.237 215.641 416.437 216.232C416.636 216.818 416.735 217.46 416.735 218.157V218.342C416.735 219.033 416.636 219.675 416.437 220.267C416.237 220.853 415.944 221.365 415.558 221.805C415.171 222.238 414.693 222.575 414.125 222.815C413.557 223.056 412.9 223.176 412.156 223.176C411.412 223.176 410.753 223.056 410.179 222.815C409.604 222.575 409.124 222.238 408.737 221.805C408.351 221.365 408.058 220.853 407.858 220.267C407.659 219.675 407.56 219.033 407.56 218.342ZM410.521 218.157V218.342C410.521 218.699 410.548 219.033 410.601 219.344C410.653 219.654 410.741 219.927 410.864 220.161C410.987 220.39 411.154 220.568 411.365 220.697C411.576 220.826 411.84 220.891 412.156 220.891C412.467 220.891 412.725 220.826 412.93 220.697C413.141 220.568 413.308 220.39 413.431 220.161C413.554 219.927 413.642 219.654 413.694 219.344C413.747 219.033 413.773 218.699 413.773 218.342V218.157C413.773 217.812 413.747 217.486 413.694 217.182C413.642 216.871 413.554 216.599 413.431 216.364C413.308 216.124 413.141 215.937 412.93 215.802C412.719 215.667 412.455 215.6 412.139 215.6C411.828 215.6 411.567 215.667 411.356 215.802C411.151 215.937 410.987 216.124 410.864 216.364C410.741 216.599 410.653 216.871 410.601 217.182C410.548 217.486 410.521 217.812 410.521 218.157ZM423.521 220.82V209.5H426.5V223H423.828L423.521 220.82ZM417.685 218.359V218.175C417.685 217.454 417.764 216.798 417.922 216.206C418.08 215.608 418.314 215.096 418.625 214.668C418.936 214.234 419.322 213.9 419.785 213.666C420.248 213.432 420.781 213.314 421.385 213.314C421.924 213.314 422.396 213.44 422.8 213.692C423.204 213.938 423.55 214.284 423.837 214.729C424.124 215.175 424.358 215.696 424.54 216.294C424.722 216.886 424.859 217.524 424.953 218.21V218.43C424.859 219.074 424.722 219.684 424.54 220.258C424.358 220.826 424.124 221.33 423.837 221.77C423.55 222.209 423.201 222.555 422.791 222.807C422.387 223.053 421.912 223.176 421.367 223.176C420.764 223.176 420.23 223.056 419.768 222.815C419.311 222.575 418.927 222.238 418.616 221.805C418.312 221.371 418.08 220.861 417.922 220.275C417.764 219.689 417.685 219.051 417.685 218.359ZM420.646 218.175V218.359C420.646 218.717 420.67 219.048 420.717 219.353C420.764 219.657 420.843 219.927 420.954 220.161C421.071 220.39 421.224 220.568 421.411 220.697C421.604 220.826 421.842 220.891 422.123 220.891C422.504 220.891 422.817 220.8 423.063 220.618C423.315 220.437 423.5 220.179 423.617 219.845C423.74 219.511 423.793 219.118 423.775 218.667V217.973C423.787 217.586 423.761 217.246 423.696 216.953C423.632 216.654 423.529 216.405 423.389 216.206C423.254 216.007 423.081 215.857 422.87 215.758C422.665 215.652 422.422 215.6 422.141 215.6C421.865 215.6 421.631 215.664 421.438 215.793C421.25 215.922 421.098 216.104 420.98 216.338C420.863 216.566 420.778 216.839 420.726 217.155C420.673 217.466 420.646 217.806 420.646 218.175ZM432.784 223.176C432.011 223.176 431.319 223.056 430.71 222.815C430.101 222.569 429.585 222.232 429.163 221.805C428.747 221.377 428.428 220.885 428.205 220.328C427.988 219.771 427.88 219.183 427.88 218.562V218.228C427.88 217.53 427.977 216.886 428.17 216.294C428.363 215.696 428.65 215.175 429.031 214.729C429.412 214.284 429.89 213.938 430.464 213.692C431.038 213.44 431.706 213.314 432.468 213.314C433.142 213.314 433.745 213.423 434.278 213.64C434.812 213.856 435.263 214.167 435.632 214.571C436.007 214.976 436.291 215.465 436.484 216.039C436.684 216.613 436.783 217.258 436.783 217.973V219.177H429.014V217.322H433.892V217.094C433.897 216.777 433.842 216.508 433.725 216.285C433.613 216.062 433.449 215.893 433.232 215.775C433.016 215.658 432.752 215.6 432.441 215.6C432.119 215.6 431.853 215.67 431.642 215.811C431.437 215.951 431.275 216.145 431.158 216.391C431.047 216.631 430.968 216.909 430.921 217.226C430.874 217.542 430.851 217.876 430.851 218.228V218.562C430.851 218.913 430.897 219.232 430.991 219.52C431.091 219.807 431.231 220.053 431.413 220.258C431.601 220.457 431.823 220.612 432.081 220.724C432.345 220.835 432.644 220.891 432.978 220.891C433.382 220.891 433.78 220.814 434.173 220.662C434.565 220.51 434.902 220.258 435.184 219.906L436.528 221.506C436.335 221.781 436.06 222.048 435.702 222.306C435.351 222.563 434.929 222.774 434.437 222.938C433.944 223.097 433.394 223.176 432.784 223.176ZM443.217 218.983V210.203H446.293V218.983C446.293 219.839 446.097 220.58 445.704 221.207C445.317 221.834 444.79 222.32 444.122 222.666C443.46 223.006 442.716 223.176 441.89 223.176C441.034 223.176 440.272 223.032 439.604 222.745C438.942 222.458 438.421 222.016 438.04 221.418C437.665 220.82 437.478 220.059 437.478 219.133H440.571C440.571 219.566 440.621 219.906 440.721 220.152C440.82 220.393 440.967 220.562 441.16 220.662C441.359 220.756 441.603 220.803 441.89 220.803C442.171 220.803 442.408 220.732 442.602 220.592C442.801 220.445 442.953 220.237 443.059 219.968C443.164 219.692 443.217 219.364 443.217 218.983ZM454.845 219.599C454.845 219.399 454.815 219.221 454.757 219.062C454.698 218.898 454.59 218.746 454.432 218.605C454.273 218.465 454.045 218.324 453.746 218.184C453.453 218.037 453.066 217.885 452.586 217.727C452.023 217.539 451.481 217.328 450.96 217.094C450.438 216.854 449.973 216.575 449.562 216.259C449.152 215.937 448.827 215.562 448.587 215.134C448.347 214.7 448.227 214.196 448.227 213.622C448.227 213.071 448.35 212.576 448.596 212.137C448.842 211.691 449.185 211.313 449.624 211.003C450.069 210.687 450.591 210.446 451.188 210.282C451.786 210.112 452.439 210.027 453.148 210.027C454.086 210.027 454.912 210.191 455.627 210.52C456.348 210.842 456.91 211.302 457.314 211.899C457.725 212.491 457.93 213.191 457.93 214H454.862C454.862 213.678 454.795 213.394 454.66 213.147C454.531 212.901 454.335 212.708 454.071 212.567C453.808 212.427 453.477 212.356 453.078 212.356C452.691 212.356 452.366 212.415 452.103 212.532C451.839 212.649 451.64 212.808 451.505 213.007C451.37 213.2 451.303 213.414 451.303 213.648C451.303 213.842 451.355 214.018 451.461 214.176C451.572 214.328 451.728 214.472 451.927 214.606C452.132 214.741 452.378 214.87 452.665 214.993C452.958 215.116 453.286 215.236 453.649 215.354C454.329 215.57 454.933 215.813 455.46 216.083C455.993 216.347 456.441 216.648 456.805 216.988C457.174 217.322 457.452 217.703 457.64 218.131C457.833 218.559 457.93 219.042 457.93 219.581C457.93 220.155 457.818 220.665 457.596 221.11C457.373 221.556 457.054 221.934 456.638 222.244C456.222 222.549 455.724 222.78 455.144 222.938C454.563 223.097 453.916 223.176 453.201 223.176C452.545 223.176 451.897 223.094 451.259 222.93C450.626 222.76 450.052 222.502 449.536 222.156C449.021 221.805 448.607 221.356 448.297 220.812C447.992 220.261 447.84 219.607 447.84 218.852H450.934C450.934 219.227 450.983 219.543 451.083 219.801C451.183 220.059 451.329 220.267 451.522 220.425C451.716 220.577 451.953 220.688 452.234 220.759C452.516 220.823 452.838 220.855 453.201 220.855C453.594 220.855 453.91 220.8 454.15 220.688C454.391 220.571 454.566 220.419 454.678 220.231C454.789 220.038 454.845 219.827 454.845 219.599Z" fill="white"/>
<rect x="372" y="196" width="109" height="41" rx="3" stroke="#424242" stroke-width="4"/>
<rect x="501" y="196" width="119" height="41" rx="3" fill="#424242"/>
<path d="M529.07 220.609V216.689C529.07 216.42 529.032 216.188 528.956 215.995C528.88 215.802 528.76 215.652 528.596 215.547C528.432 215.436 528.212 215.38 527.937 215.38C527.714 215.38 527.523 215.418 527.365 215.494C527.207 215.57 527.087 215.685 527.005 215.837C526.923 215.989 526.882 216.183 526.882 216.417H523.92C523.92 215.978 524.017 215.57 524.21 215.195C524.409 214.814 524.69 214.483 525.054 214.202C525.423 213.921 525.862 213.704 526.372 213.552C526.888 213.394 527.462 213.314 528.095 213.314C528.851 213.314 529.524 213.44 530.116 213.692C530.714 213.944 531.186 214.322 531.531 214.826C531.877 215.324 532.05 215.951 532.05 216.707V220.601C532.05 221.222 532.085 221.693 532.155 222.016C532.226 222.332 532.325 222.61 532.454 222.851V223H529.483C529.343 222.707 529.237 222.35 529.167 221.928C529.103 221.5 529.07 221.061 529.07 220.609ZM529.431 217.19L529.448 218.772H528.139C527.863 218.772 527.629 218.811 527.436 218.887C527.248 218.963 527.096 219.068 526.979 219.203C526.867 219.332 526.785 219.479 526.732 219.643C526.686 219.807 526.662 219.979 526.662 220.161C526.662 220.337 526.703 220.495 526.785 220.636C526.873 220.771 526.99 220.876 527.137 220.952C527.283 221.028 527.447 221.066 527.629 221.066C527.957 221.066 528.235 221.005 528.464 220.882C528.698 220.753 528.877 220.598 529 220.416C529.123 220.234 529.185 220.064 529.185 219.906L529.835 221.119C529.718 221.354 529.583 221.591 529.431 221.831C529.284 222.071 529.1 222.294 528.877 222.499C528.66 222.698 528.394 222.862 528.077 222.991C527.761 223.114 527.377 223.176 526.926 223.176C526.34 223.176 525.801 223.056 525.309 222.815C524.822 222.575 524.433 222.241 524.14 221.813C523.847 221.38 523.7 220.882 523.7 220.319C523.7 219.827 523.788 219.388 523.964 219.001C524.146 218.614 524.418 218.286 524.781 218.017C525.145 217.747 525.607 217.542 526.17 217.401C526.732 217.261 527.395 217.19 528.156 217.19H529.431ZM536.585 220.17L538.343 213.49H540.197L539.538 216.839L537.798 223H536.312L536.585 220.17ZM535.891 213.49L536.98 220.117L537.104 223H535.302L533.052 213.49H535.891ZM541.762 219.977L542.86 213.49H545.699L543.467 223H541.665L541.762 219.977ZM540.408 213.49L542.184 220.152L542.456 223H540.953L539.248 216.856L538.615 213.49H540.408ZM551.755 220.328C551.755 220.164 551.699 220.023 551.588 219.906C551.482 219.783 551.295 219.672 551.025 219.572C550.756 219.467 550.378 219.361 549.892 219.256C549.429 219.156 548.992 219.024 548.582 218.86C548.178 218.696 547.823 218.497 547.519 218.263C547.214 218.028 546.974 217.75 546.798 217.428C546.628 217.105 546.543 216.736 546.543 216.32C546.543 215.916 546.628 215.535 546.798 215.178C546.974 214.814 547.229 214.495 547.562 214.22C547.902 213.938 548.315 213.719 548.802 213.561C549.288 213.396 549.842 213.314 550.463 213.314C551.318 213.314 552.057 213.446 552.678 213.71C553.299 213.968 553.776 214.331 554.11 214.8C554.45 215.263 554.62 215.799 554.62 216.408H551.658C551.658 216.168 551.617 215.963 551.535 215.793C551.459 215.623 551.333 215.494 551.157 215.406C550.981 215.312 550.747 215.266 550.454 215.266C550.249 215.266 550.062 215.304 549.892 215.38C549.728 215.456 549.596 215.562 549.496 215.696C549.396 215.831 549.347 215.989 549.347 216.171C549.347 216.3 549.376 216.417 549.435 216.522C549.499 216.622 549.596 216.716 549.725 216.804C549.854 216.886 550.018 216.962 550.217 217.032C550.416 217.097 550.656 217.155 550.938 217.208C551.576 217.325 552.174 217.492 552.73 217.709C553.287 217.926 553.738 218.233 554.084 218.632C554.436 219.03 554.611 219.566 554.611 220.24C554.611 220.662 554.515 221.052 554.321 221.409C554.128 221.761 553.85 222.071 553.486 222.341C553.123 222.604 552.687 222.81 552.177 222.956C551.667 223.103 551.093 223.176 550.454 223.176C549.546 223.176 548.778 223.015 548.151 222.692C547.524 222.364 547.05 221.954 546.728 221.462C546.411 220.964 546.253 220.46 546.253 219.95H549.013C549.024 220.243 549.095 220.483 549.224 220.671C549.358 220.858 549.537 220.996 549.76 221.084C549.982 221.172 550.24 221.216 550.533 221.216C550.803 221.216 551.025 221.178 551.201 221.102C551.383 221.025 551.521 220.923 551.614 220.794C551.708 220.659 551.755 220.504 551.755 220.328ZM561.783 216.338V218.632H556.501V216.338H561.783ZM570.836 219.599C570.836 219.399 570.807 219.221 570.748 219.062C570.689 218.898 570.581 218.746 570.423 218.605C570.265 218.465 570.036 218.324 569.737 218.184C569.444 218.037 569.058 217.885 568.577 217.727C568.015 217.539 567.473 217.328 566.951 217.094C566.43 216.854 565.964 216.575 565.554 216.259C565.144 215.937 564.818 215.562 564.578 215.134C564.338 214.7 564.218 214.196 564.218 213.622C564.218 213.071 564.341 212.576 564.587 212.137C564.833 211.691 565.176 211.313 565.615 211.003C566.061 210.687 566.582 210.446 567.18 210.282C567.777 210.112 568.431 210.027 569.14 210.027C570.077 210.027 570.903 210.191 571.618 210.52C572.339 210.842 572.901 211.302 573.306 211.899C573.716 212.491 573.921 213.191 573.921 214H570.854C570.854 213.678 570.786 213.394 570.651 213.147C570.522 212.901 570.326 212.708 570.062 212.567C569.799 212.427 569.468 212.356 569.069 212.356C568.683 212.356 568.357 212.415 568.094 212.532C567.83 212.649 567.631 212.808 567.496 213.007C567.361 213.2 567.294 213.414 567.294 213.648C567.294 213.842 567.347 214.018 567.452 214.176C567.563 214.328 567.719 214.472 567.918 214.606C568.123 214.741 568.369 214.87 568.656 214.993C568.949 215.116 569.277 215.236 569.641 215.354C570.32 215.57 570.924 215.813 571.451 216.083C571.984 216.347 572.433 216.648 572.796 216.988C573.165 217.322 573.443 217.703 573.631 218.131C573.824 218.559 573.921 219.042 573.921 219.581C573.921 220.155 573.81 220.665 573.587 221.11C573.364 221.556 573.045 221.934 572.629 222.244C572.213 222.549 571.715 222.78 571.135 222.938C570.555 223.097 569.907 223.176 569.192 223.176C568.536 223.176 567.889 223.094 567.25 222.93C566.617 222.76 566.043 222.502 565.527 222.156C565.012 221.805 564.599 221.356 564.288 220.812C563.983 220.261 563.831 219.607 563.831 218.852H566.925C566.925 219.227 566.975 219.543 567.074 219.801C567.174 220.059 567.32 220.267 567.514 220.425C567.707 220.577 567.944 220.688 568.226 220.759C568.507 220.823 568.829 220.855 569.192 220.855C569.585 220.855 569.901 220.8 570.142 220.688C570.382 220.571 570.558 220.419 570.669 220.231C570.78 220.038 570.836 219.827 570.836 219.599ZM579.669 223H576.83L576.848 220.627H579.669C580.255 220.627 580.75 220.486 581.154 220.205C581.564 219.924 581.875 219.505 582.086 218.948C582.303 218.386 582.411 217.694 582.411 216.874V216.32C582.411 215.705 582.35 215.166 582.227 214.703C582.109 214.234 581.934 213.845 581.699 213.534C581.465 213.218 581.172 212.98 580.82 212.822C580.475 212.664 580.076 212.585 579.625 212.585H576.777V210.203H579.625C580.492 210.203 581.286 210.353 582.007 210.651C582.733 210.944 583.36 211.366 583.888 211.917C584.421 212.462 584.831 213.109 585.118 213.859C585.411 214.604 585.558 215.43 585.558 216.338V216.874C585.558 217.776 585.411 218.603 585.118 219.353C584.831 220.103 584.424 220.75 583.896 221.295C583.369 221.84 582.745 222.262 582.024 222.561C581.31 222.854 580.524 223 579.669 223ZM578.597 210.203V223H575.512V210.203H578.597ZM590.251 210.203V223H587.166V210.203H590.251ZM597.889 210.203L592.932 216.689L590.031 219.862L589.469 217.032L591.323 214.22L594.083 210.203H597.889ZM594.241 223L590.937 217.234L593.336 215.468L597.889 223H594.241Z" fill="white"/>
<rect x="501" y="196" width="119" height="41" rx="3" stroke="#424242" stroke-width="4"/>
<rect x="640" y="196" width="131" height="41" rx="3" fill="#424242"/>
<path d="M669.359 210.203V223H666.274V210.203H669.359ZM673.209 210.203V212.585H662.513V210.203H673.209ZM676.575 221.884L679.036 213.49H682.218L678.395 224.415C678.312 224.655 678.204 224.913 678.069 225.188C677.935 225.47 677.75 225.736 677.516 225.988C677.281 226.24 676.979 226.445 676.61 226.604C676.247 226.762 675.796 226.841 675.257 226.841C674.97 226.841 674.759 226.826 674.624 226.797C674.495 226.773 674.296 226.729 674.026 226.665V224.547C674.103 224.547 674.167 224.547 674.22 224.547C674.278 224.547 674.343 224.547 674.413 224.547C674.729 224.547 674.981 224.515 675.169 224.45C675.362 224.386 675.509 224.292 675.608 224.169C675.714 224.046 675.796 223.896 675.854 223.721L676.575 221.884ZM675.951 213.49L677.823 220.144L678.148 223.281H676.162L672.778 213.49H675.951ZM685.979 215.318V226.656H683.018V213.49H685.777L685.979 215.318ZM691.815 218.131V218.315C691.815 219.007 691.736 219.648 691.578 220.24C691.42 220.832 691.186 221.348 690.875 221.787C690.564 222.227 690.178 222.569 689.715 222.815C689.258 223.056 688.728 223.176 688.124 223.176C687.556 223.176 687.066 223.05 686.656 222.798C686.246 222.546 685.903 222.197 685.628 221.752C685.353 221.307 685.13 220.797 684.96 220.223C684.79 219.648 684.655 219.042 684.556 218.403V218.166C684.655 217.48 684.79 216.845 684.96 216.259C685.13 215.667 685.353 215.151 685.628 214.712C685.903 214.272 686.243 213.93 686.647 213.684C687.058 213.438 687.547 213.314 688.115 213.314C688.719 213.314 689.249 213.429 689.706 213.657C690.169 213.886 690.556 214.214 690.866 214.642C691.183 215.063 691.42 215.57 691.578 216.162C691.736 216.754 691.815 217.41 691.815 218.131ZM688.854 218.315V218.131C688.854 217.762 688.827 217.425 688.774 217.12C688.722 216.81 688.637 216.54 688.52 216.312C688.408 216.083 688.259 215.907 688.071 215.784C687.884 215.661 687.652 215.6 687.377 215.6C687.061 215.6 686.794 215.649 686.577 215.749C686.366 215.843 686.196 215.989 686.067 216.188C685.944 216.382 685.856 216.625 685.804 216.918C685.757 217.205 685.736 217.542 685.742 217.929V218.649C685.73 219.095 685.774 219.487 685.874 219.827C685.974 220.161 686.146 220.422 686.393 220.609C686.639 220.797 686.973 220.891 687.395 220.891C687.676 220.891 687.91 220.826 688.098 220.697C688.285 220.562 688.435 220.378 688.546 220.144C688.657 219.903 688.736 219.628 688.783 219.317C688.83 219.007 688.854 218.673 688.854 218.315ZM697.739 223.176C696.966 223.176 696.274 223.056 695.665 222.815C695.056 222.569 694.54 222.232 694.118 221.805C693.702 221.377 693.383 220.885 693.16 220.328C692.943 219.771 692.835 219.183 692.835 218.562V218.228C692.835 217.53 692.932 216.886 693.125 216.294C693.318 215.696 693.605 215.175 693.986 214.729C694.367 214.284 694.845 213.938 695.419 213.692C695.993 213.44 696.661 213.314 697.423 213.314C698.097 213.314 698.7 213.423 699.233 213.64C699.767 213.856 700.218 214.167 700.587 214.571C700.962 214.976 701.246 215.465 701.439 216.039C701.639 216.613 701.738 217.258 701.738 217.973V219.177H693.969V217.322H698.847V217.094C698.853 216.777 698.797 216.508 698.68 216.285C698.568 216.062 698.404 215.893 698.188 215.775C697.971 215.658 697.707 215.6 697.396 215.6C697.074 215.6 696.808 215.67 696.597 215.811C696.392 215.951 696.23 216.145 696.113 216.391C696.002 216.631 695.923 216.909 695.876 217.226C695.829 217.542 695.806 217.876 695.806 218.228V218.562C695.806 218.913 695.853 219.232 695.946 219.52C696.046 219.807 696.187 220.053 696.368 220.258C696.556 220.457 696.778 220.612 697.036 220.724C697.3 220.835 697.599 220.891 697.933 220.891C698.337 220.891 698.735 220.814 699.128 220.662C699.521 220.51 699.857 220.258 700.139 219.906L701.483 221.506C701.29 221.781 701.015 222.048 700.657 222.306C700.306 222.563 699.884 222.774 699.392 222.938C698.899 223.097 698.349 223.176 697.739 223.176ZM707.926 220.328C707.926 220.164 707.87 220.023 707.759 219.906C707.653 219.783 707.466 219.672 707.196 219.572C706.927 219.467 706.549 219.361 706.062 219.256C705.6 219.156 705.163 219.024 704.753 218.86C704.349 218.696 703.994 218.497 703.689 218.263C703.385 218.028 703.145 217.75 702.969 217.428C702.799 217.105 702.714 216.736 702.714 216.32C702.714 215.916 702.799 215.535 702.969 215.178C703.145 214.814 703.399 214.495 703.733 214.22C704.073 213.938 704.486 213.719 704.973 213.561C705.459 213.396 706.013 213.314 706.634 213.314C707.489 213.314 708.228 213.446 708.849 213.71C709.47 213.968 709.947 214.331 710.281 214.8C710.621 215.263 710.791 215.799 710.791 216.408H707.829C707.829 216.168 707.788 215.963 707.706 215.793C707.63 215.623 707.504 215.494 707.328 215.406C707.152 215.312 706.918 215.266 706.625 215.266C706.42 215.266 706.232 215.304 706.062 215.38C705.898 215.456 705.767 215.562 705.667 215.696C705.567 215.831 705.518 215.989 705.518 216.171C705.518 216.3 705.547 216.417 705.605 216.522C705.67 216.622 705.767 216.716 705.896 216.804C706.024 216.886 706.188 216.962 706.388 217.032C706.587 217.097 706.827 217.155 707.108 217.208C707.747 217.325 708.345 217.492 708.901 217.709C709.458 217.926 709.909 218.233 710.255 218.632C710.606 219.03 710.782 219.566 710.782 220.24C710.782 220.662 710.686 221.052 710.492 221.409C710.299 221.761 710.021 222.071 709.657 222.341C709.294 222.604 708.857 222.81 708.348 222.956C707.838 223.103 707.264 223.176 706.625 223.176C705.717 223.176 704.949 223.015 704.322 222.692C703.695 222.364 703.221 221.954 702.898 221.462C702.582 220.964 702.424 220.46 702.424 219.95H705.184C705.195 220.243 705.266 220.483 705.395 220.671C705.529 220.858 705.708 220.996 705.931 221.084C706.153 221.172 706.411 221.216 706.704 221.216C706.974 221.216 707.196 221.178 707.372 221.102C707.554 221.025 707.691 220.923 707.785 220.794C707.879 220.659 707.926 220.504 707.926 220.328ZM716.188 220.891C716.463 220.891 716.697 220.841 716.891 220.741C717.09 220.636 717.239 220.489 717.339 220.302C717.444 220.108 717.494 219.877 717.488 219.607H720.274C720.28 220.322 720.104 220.949 719.747 221.488C719.396 222.021 718.915 222.438 718.306 222.736C717.702 223.029 717.02 223.176 716.258 223.176C715.514 223.176 714.863 223.056 714.307 222.815C713.75 222.569 713.284 222.229 712.909 221.796C712.54 221.356 712.262 220.844 712.074 220.258C711.893 219.672 711.802 219.036 711.802 218.351V218.148C711.802 217.463 711.893 216.827 712.074 216.241C712.262 215.649 712.54 215.137 712.909 214.703C713.284 214.264 713.747 213.924 714.298 213.684C714.854 213.438 715.502 213.314 716.24 213.314C717.031 213.314 717.729 213.464 718.332 213.763C718.941 214.062 719.419 214.495 719.765 215.063C720.11 215.632 720.28 216.32 720.274 217.129H717.488C717.494 216.842 717.45 216.584 717.356 216.355C717.263 216.127 717.116 215.945 716.917 215.811C716.724 215.67 716.475 215.6 716.17 215.6C715.865 215.6 715.619 215.667 715.432 215.802C715.244 215.937 715.101 216.124 715.001 216.364C714.907 216.599 714.843 216.868 714.808 217.173C714.778 217.478 714.764 217.803 714.764 218.148V218.351C714.764 218.702 714.778 219.033 714.808 219.344C714.843 219.648 714.91 219.918 715.01 220.152C715.109 220.381 715.253 220.562 715.44 220.697C715.628 220.826 715.877 220.891 716.188 220.891ZM724.528 215.846V223H721.566V213.49H724.335L724.528 215.846ZM727.341 213.42L727.288 216.171C727.171 216.159 727.013 216.145 726.813 216.127C726.614 216.109 726.447 216.101 726.312 216.101C725.967 216.101 725.668 216.142 725.416 216.224C725.17 216.3 724.965 216.417 724.801 216.575C724.643 216.728 724.525 216.921 724.449 217.155C724.379 217.39 724.347 217.662 724.353 217.973L723.816 217.621C723.816 216.982 723.878 216.402 724.001 215.881C724.13 215.354 724.312 214.899 724.546 214.519C724.78 214.132 725.064 213.836 725.398 213.631C725.732 213.42 726.107 213.314 726.523 213.314C726.67 213.314 726.813 213.323 726.954 213.341C727.101 213.358 727.229 213.385 727.341 213.42ZM731.489 213.49V223H728.519V213.49H731.489ZM728.343 211.038C728.343 210.616 728.495 210.271 728.8 210.001C729.104 209.731 729.5 209.597 729.986 209.597C730.473 209.597 730.868 209.731 731.173 210.001C731.478 210.271 731.63 210.616 731.63 211.038C731.63 211.46 731.478 211.806 731.173 212.075C730.868 212.345 730.473 212.479 729.986 212.479C729.5 212.479 729.104 212.345 728.8 212.075C728.495 211.806 728.343 211.46 728.343 211.038ZM736.306 215.318V226.656H733.344V213.49H736.104L736.306 215.318ZM742.142 218.131V218.315C742.142 219.007 742.062 219.648 741.904 220.24C741.746 220.832 741.512 221.348 741.201 221.787C740.891 222.227 740.504 222.569 740.041 222.815C739.584 223.056 739.054 223.176 738.45 223.176C737.882 223.176 737.393 223.05 736.982 222.798C736.572 222.546 736.229 222.197 735.954 221.752C735.679 221.307 735.456 220.797 735.286 220.223C735.116 219.648 734.981 219.042 734.882 218.403V218.166C734.981 217.48 735.116 216.845 735.286 216.259C735.456 215.667 735.679 215.151 735.954 214.712C736.229 214.272 736.569 213.93 736.974 213.684C737.384 213.438 737.873 213.314 738.441 213.314C739.045 213.314 739.575 213.429 740.032 213.657C740.495 213.886 740.882 214.214 741.192 214.642C741.509 215.063 741.746 215.57 741.904 216.162C742.062 216.754 742.142 217.41 742.142 218.131ZM739.18 218.315V218.131C739.18 217.762 739.153 217.425 739.101 217.12C739.048 216.81 738.963 216.54 738.846 216.312C738.734 216.083 738.585 215.907 738.397 215.784C738.21 215.661 737.979 215.6 737.703 215.6C737.387 215.6 737.12 215.649 736.903 215.749C736.692 215.843 736.522 215.989 736.394 216.188C736.271 216.382 736.183 216.625 736.13 216.918C736.083 217.205 736.062 217.542 736.068 217.929V218.649C736.057 219.095 736.101 219.487 736.2 219.827C736.3 220.161 736.473 220.422 736.719 220.609C736.965 220.797 737.299 220.891 737.721 220.891C738.002 220.891 738.236 220.826 738.424 220.697C738.611 220.562 738.761 220.378 738.872 220.144C738.983 219.903 739.062 219.628 739.109 219.317C739.156 219.007 739.18 218.673 739.18 218.315ZM748.47 213.49V215.547H742.739V213.49H748.47ZM743.943 211.126H746.905V219.897C746.905 220.149 746.935 220.346 746.993 220.486C747.052 220.621 747.151 220.718 747.292 220.776C747.438 220.829 747.632 220.855 747.872 220.855C748.042 220.855 748.183 220.853 748.294 220.847C748.405 220.835 748.511 220.82 748.61 220.803V222.921C748.358 223.003 748.095 223.064 747.819 223.105C747.544 223.152 747.251 223.176 746.94 223.176C746.308 223.176 745.766 223.076 745.314 222.877C744.869 222.678 744.529 222.364 744.295 221.937C744.061 221.509 743.943 220.952 743.943 220.267V211.126Z" fill="white"/>
<rect x="640" y="196" width="131" height="41" rx="3" stroke="#424242" stroke-width="4"/>
<rect x="791" y="196" width="112" height="41" rx="3" fill="#424242"/>
<path d="M820.51 210.203V223H817.425V210.203H820.51ZM824.359 210.203V212.585H813.663V210.203H824.359ZM828.429 209.5V223H825.467V209.5H828.429ZM828.077 217.92L827.383 217.938C827.383 217.27 827.465 216.654 827.629 216.092C827.793 215.529 828.027 215.04 828.332 214.624C828.637 214.208 829.003 213.886 829.431 213.657C829.858 213.429 830.333 213.314 830.854 213.314C831.323 213.314 831.751 213.382 832.138 213.517C832.53 213.651 832.867 213.868 833.148 214.167C833.436 214.466 833.655 214.855 833.808 215.336C833.966 215.816 834.045 216.402 834.045 217.094V223H831.065V217.076C831.065 216.689 831.01 216.391 830.898 216.18C830.793 215.963 830.641 215.813 830.441 215.731C830.242 215.644 829.999 215.6 829.712 215.6C829.366 215.6 829.085 215.658 828.868 215.775C828.651 215.893 828.484 216.057 828.367 216.268C828.256 216.473 828.18 216.716 828.139 216.997C828.098 217.278 828.077 217.586 828.077 217.92ZM838.677 215.846V223H835.715V213.49H838.483L838.677 215.846ZM841.489 213.42L841.437 216.171C841.319 216.159 841.161 216.145 840.962 216.127C840.763 216.109 840.596 216.101 840.461 216.101C840.115 216.101 839.816 216.142 839.564 216.224C839.318 216.3 839.113 216.417 838.949 216.575C838.791 216.728 838.674 216.921 838.598 217.155C838.527 217.39 838.495 217.662 838.501 217.973L837.965 217.621C837.965 216.982 838.026 216.402 838.149 215.881C838.278 215.354 838.46 214.899 838.694 214.519C838.929 214.132 839.213 213.836 839.547 213.631C839.881 213.42 840.256 213.314 840.672 213.314C840.818 213.314 840.962 213.323 841.103 213.341C841.249 213.358 841.378 213.385 841.489 213.42ZM846.938 223.176C846.165 223.176 845.474 223.056 844.864 222.815C844.255 222.569 843.739 222.232 843.317 221.805C842.901 221.377 842.582 220.885 842.359 220.328C842.143 219.771 842.034 219.183 842.034 218.562V218.228C842.034 217.53 842.131 216.886 842.324 216.294C842.518 215.696 842.805 215.175 843.186 214.729C843.566 214.284 844.044 213.938 844.618 213.692C845.192 213.44 845.86 213.314 846.622 213.314C847.296 213.314 847.899 213.423 848.433 213.64C848.966 213.856 849.417 214.167 849.786 214.571C850.161 214.976 850.445 215.465 850.639 216.039C850.838 216.613 850.938 217.258 850.938 217.973V219.177H843.168V217.322H848.046V217.094C848.052 216.777 847.996 216.508 847.879 216.285C847.768 216.062 847.604 215.893 847.387 215.775C847.17 215.658 846.906 215.6 846.596 215.6C846.273 215.6 846.007 215.67 845.796 215.811C845.591 215.951 845.43 216.145 845.312 216.391C845.201 216.631 845.122 216.909 845.075 217.226C845.028 217.542 845.005 217.876 845.005 218.228V218.562C845.005 218.913 845.052 219.232 845.146 219.52C845.245 219.807 845.386 220.053 845.567 220.258C845.755 220.457 845.978 220.612 846.235 220.724C846.499 220.835 846.798 220.891 847.132 220.891C847.536 220.891 847.935 220.814 848.327 220.662C848.72 220.51 849.057 220.258 849.338 219.906L850.683 221.506C850.489 221.781 850.214 222.048 849.856 222.306C849.505 222.563 849.083 222.774 848.591 222.938C848.099 223.097 847.548 223.176 846.938 223.176ZM856.747 223.176C855.974 223.176 855.282 223.056 854.673 222.815C854.063 222.569 853.548 222.232 853.126 221.805C852.71 221.377 852.391 220.885 852.168 220.328C851.951 219.771 851.843 219.183 851.843 218.562V218.228C851.843 217.53 851.939 216.886 852.133 216.294C852.326 215.696 852.613 215.175 852.994 214.729C853.375 214.284 853.853 213.938 854.427 213.692C855.001 213.44 855.669 213.314 856.431 213.314C857.104 213.314 857.708 213.423 858.241 213.64C858.774 213.856 859.226 214.167 859.595 214.571C859.97 214.976 860.254 215.465 860.447 216.039C860.646 216.613 860.746 217.258 860.746 217.973V219.177H852.977V217.322H857.854V217.094C857.86 216.777 857.805 216.508 857.688 216.285C857.576 216.062 857.412 215.893 857.195 215.775C856.979 215.658 856.715 215.6 856.404 215.6C856.082 215.6 855.815 215.67 855.604 215.811C855.399 215.951 855.238 216.145 855.121 216.391C855.01 216.631 854.931 216.909 854.884 217.226C854.837 217.542 854.813 217.876 854.813 218.228V218.562C854.813 218.913 854.86 219.232 854.954 219.52C855.054 219.807 855.194 220.053 855.376 220.258C855.563 220.457 855.786 220.612 856.044 220.724C856.308 220.835 856.606 220.891 856.94 220.891C857.345 220.891 857.743 220.814 858.136 220.662C858.528 220.51 858.865 220.258 859.146 219.906L860.491 221.506C860.298 221.781 860.022 222.048 859.665 222.306C859.313 222.563 858.892 222.774 858.399 222.938C857.907 223.097 857.356 223.176 856.747 223.176ZM862.144 221.611C862.144 221.189 862.296 220.838 862.601 220.557C862.905 220.27 863.298 220.126 863.778 220.126C864.265 220.126 864.657 220.27 864.956 220.557C865.261 220.838 865.413 221.189 865.413 221.611C865.413 222.033 865.261 222.388 864.956 222.675C864.657 222.956 864.265 223.097 863.778 223.097C863.298 223.097 862.905 222.956 862.601 222.675C862.296 222.388 862.144 222.033 862.144 221.611ZM867.619 213.49H870.59V223.308C870.59 224.069 870.443 224.711 870.15 225.232C869.857 225.76 869.438 226.158 868.894 226.428C868.349 226.703 867.698 226.841 866.942 226.841C866.69 226.841 866.459 226.829 866.248 226.806C866.031 226.788 865.794 226.75 865.536 226.691V224.45C865.688 224.474 865.829 224.491 865.958 224.503C866.087 224.521 866.228 224.529 866.38 224.529C866.649 224.529 866.875 224.485 867.057 224.397C867.238 224.31 867.376 224.175 867.47 223.993C867.569 223.812 867.619 223.583 867.619 223.308V213.49ZM867.399 211.038C867.399 210.616 867.552 210.271 867.856 210.001C868.161 209.731 868.557 209.597 869.043 209.597C869.529 209.597 869.925 209.731 870.229 210.001C870.534 210.271 870.687 210.616 870.687 211.038C870.687 211.46 870.534 211.806 870.229 212.075C869.925 212.345 869.529 212.479 869.043 212.479C868.557 212.479 868.161 212.345 867.856 212.075C867.552 211.806 867.399 211.46 867.399 211.038ZM877.252 220.328C877.252 220.164 877.196 220.023 877.085 219.906C876.979 219.783 876.792 219.672 876.522 219.572C876.253 219.467 875.875 219.361 875.389 219.256C874.926 219.156 874.489 219.024 874.079 218.86C873.675 218.696 873.32 218.497 873.016 218.263C872.711 218.028 872.471 217.75 872.295 217.428C872.125 217.105 872.04 216.736 872.04 216.32C872.04 215.916 872.125 215.535 872.295 215.178C872.471 214.814 872.726 214.495 873.06 214.22C873.399 213.938 873.812 213.719 874.299 213.561C874.785 213.396 875.339 213.314 875.96 213.314C876.815 213.314 877.554 213.446 878.175 213.71C878.796 213.968 879.273 214.331 879.607 214.8C879.947 215.263 880.117 215.799 880.117 216.408H877.155C877.155 216.168 877.114 215.963 877.032 215.793C876.956 215.623 876.83 215.494 876.654 215.406C876.479 215.312 876.244 215.266 875.951 215.266C875.746 215.266 875.559 215.304 875.389 215.38C875.225 215.456 875.093 215.562 874.993 215.696C874.894 215.831 874.844 215.989 874.844 216.171C874.844 216.3 874.873 216.417 874.932 216.522C874.996 216.622 875.093 216.716 875.222 216.804C875.351 216.886 875.515 216.962 875.714 217.032C875.913 217.097 876.153 217.155 876.435 217.208C877.073 217.325 877.671 217.492 878.228 217.709C878.784 217.926 879.235 218.233 879.581 218.632C879.933 219.03 880.108 219.566 880.108 220.24C880.108 220.662 880.012 221.052 879.818 221.409C879.625 221.761 879.347 222.071 878.983 222.341C878.62 222.604 878.184 222.81 877.674 222.956C877.164 223.103 876.59 223.176 875.951 223.176C875.043 223.176 874.275 223.015 873.648 222.692C873.021 222.364 872.547 221.954 872.225 221.462C871.908 220.964 871.75 220.46 871.75 219.95H874.51C874.521 220.243 874.592 220.483 874.721 220.671C874.855 220.858 875.034 220.996 875.257 221.084C875.479 221.172 875.737 221.216 876.03 221.216C876.3 221.216 876.522 221.178 876.698 221.102C876.88 221.025 877.018 220.923 877.111 220.794C877.205 220.659 877.252 220.504 877.252 220.328Z" fill="white"/>
<rect x="791" y="196" width="112" height="41" rx="3" stroke="#424242" stroke-width="4"/>
<path d="M1006 0H1348C1356.28 0 1363 6.71573 1363 15V282C1363 290.284 1356.28 297 1348 297H1006V0Z" fill="white"/>
<path d="M1127.98 102.271C1124.48 107.497 1116.07 116.246 1100.76 116.246C1095.27 116.246 1090.95 117.462 1087.68 119.651C1084.53 121.715 1080.55 121.715 1077.4 119.651C1074.01 117.462 1069.81 116.246 1064.31 116.246C1049.01 116.246 1040.72 107.497 1037.09 102.271C1036.63 101.665 1035.81 102.149 1036.04 103.002V103.123C1036.74 105.918 1038.03 109.44 1040.13 113.33C1041.88 116.367 1044.22 119.408 1047.37 121.957C1048.19 122.688 1049.13 123.294 1050.06 123.904C1044.57 138.364 1045.62 132.531 1053.21 146.264L1079.27 193.049C1079.97 194.265 1081.25 194.996 1082.54 194.996C1083.82 194.996 1085.22 194.265 1085.81 193.049L1111.86 146.264C1119.45 132.531 1120.5 138.485 1115.01 123.904C1115.95 123.294 1116.88 122.567 1117.7 121.957C1120.86 119.287 1123.19 116.246 1124.95 113.33C1127.05 109.686 1128.33 105.918 1129.03 103.123V103.002C1129.15 102.271 1128.33 101.665 1127.98 102.271ZM1052.52 133.747C1052.52 131.073 1053.33 128.521 1054.73 126.578C1055.55 126.941 1056.37 127.184 1057.19 127.547C1057.54 127.672 1064.2 129.373 1065.01 129.615C1068.87 130.952 1072.73 133.137 1076.11 137.269C1074.71 142.496 1070.04 146.264 1064.55 146.264C1057.89 146.264 1052.52 140.674 1052.52 133.747ZM1082.42 166.556L1066.91 149.992C1072.14 149.229 1076.54 145.832 1078.8 141.038C1079.03 141.401 1079.27 141.89 1079.5 142.375C1079.73 142.738 1079.85 142.98 1080.08 143.348C1080.67 144.564 1081.25 145.901 1081.72 147.238C1081.95 147.843 1082.19 148.328 1082.3 148.938C1082.3 149.059 1082.42 149.18 1082.42 149.302C1082.42 149.18 1082.54 149.059 1082.54 148.938C1082.77 148.328 1083 147.843 1083.12 147.238C1083.71 145.901 1084.29 144.564 1084.76 143.348C1084.99 142.98 1085.11 142.738 1085.34 142.375C1085.57 141.89 1085.81 141.522 1086.04 141.038C1088.3 145.832 1092.71 149.229 1097.93 149.992L1082.42 166.556ZM1110.58 146.264V146.123C1110.55 146.111 1110.52 146.103 1110.49 146.095L1110.58 146.022V146.123C1110.8 146.204 1110.82 146.264 1110.58 146.264ZM1100.29 146.143C1094.8 146.143 1090.13 142.375 1088.73 137.148C1092.12 133.137 1095.74 130.952 1099.83 129.615C1100.76 129.373 1101.58 129.005 1102.4 128.884C1102.86 128.763 1109.29 126.82 1110.11 126.457C1111.51 128.521 1112.33 130.952 1112.33 133.626C1112.33 140.553 1106.95 146.143 1100.29 146.143Z" fill="black"/>
<path d="M1066.3 139.822C1068.87 139.822 1071.09 138.121 1071.79 135.569L1072.02 134.963L1071.55 134.599C1069.57 133.02 1067.35 131.804 1064.66 130.952C1063.84 130.71 1063.03 130.467 1062.21 130.346L1061.62 130.104L1061.39 130.71C1060.81 131.683 1060.46 132.774 1060.46 133.868C1060.57 137.148 1063.14 139.822 1066.3 139.822Z" fill="#808080"/>
<path d="M1098.42 139.822C1101.57 139.822 1104.14 137.148 1104.14 133.868C1104.14 132.774 1103.91 131.679 1103.21 130.71L1102.98 130.104L1102.39 130.346C1101.46 130.589 1100.76 130.831 1099.94 130.952C1097.25 131.804 1095.03 133.016 1093.05 134.599L1092.58 134.963L1092.81 135.569C1093.52 138 1095.85 139.822 1098.42 139.822Z" fill="#808080"/>
<path d="M1158.92 195L1130.08 134.343H1144.55L1163.99 176.193L1166.78 183.633H1167.71L1170.4 176.193L1190.04 134.343H1204.1L1202.45 140.543L1175.47 195H1158.92Z" fill="black"/>
<path d="M1213.44 195V134.24H1227.09V195H1213.44Z" fill="black"/>
<path d="M1240.53 195V184.977L1286.43 144.16H1240.53V134.24H1304.73V144.16L1257.9 185.08H1304.21L1308.35 193.863C1308.35 194.139 1307.42 194.414 1305.56 194.69C1303.7 194.897 1300.49 195 1295.94 195H1240.53Z" fill="black"/>
<path d="M1319.35 195V134.24H1333V195H1319.35Z" fill="black"/>
</svg>
